<?xml version="1.0" encoding="utf-8"?>
<!-- Generator: Adobe Illustrator 24.0.1, SVG Export Plug-In . SVG Version: 6.00 Build 0)  -->
<svg class="hi-svg" version="1.1" id="Layer_1" xmlns="http://www.w3.org/2000/svg" xmlns:xlink="http://www.w3.org/1999/xlink" x="0px" y="0px"
	 viewBox="9.2 0 149.47 22.66" enable-background="new 0 0 149.47 22.66" xml:space="preserve">
<g>
	<g>
		<path fill="#323232" d="M9.46,3.27h4.18v4.86h8.43V3.27h4.18v13.09h-4.18V11.1h-8.43v5.26H9.46V3.27z"/>
	</g>
	<g>
		<path fill="#323232" d="M42.31,16.36h-4.18V3.27h4.18V16.36z"/>
	</g>
	<g>
		<path fill="#323232" d="M58.42,3.27l-1.3,8.83h-1.93l-1.32-8.83H58.42z M58.34,16.36h-4.37v-3.11h4.37V16.36z"/>
	</g>
	<g>
		<path fill="#323232" d="M88.16,16.36h-4.18V3.27h4.18V16.36z"/>
	</g>
	<g>
		<path fill="#323232" d="M100.48,8.68c0.47-0.72,0.93-1.72,1.1-2.48h-2.13V3.27h4.71v2.25c0,1.27-0.63,2.48-1.02,3.15H100.48z"/>
	</g>
	<g>
		<path fill="#323232" d="M115.43,3.27h5.57l4.81,8.87l4.96-8.87h5.22v13.09h-4.08V7.8l-4.59,8.57h-3.27l-4.59-8.57v8.57h-4.02V3.27
			z"/>
	</g>
</g>
</svg>
