<?xml version="1.0" encoding="utf-8"?>
<!-- Generator: Adobe Illustrator 24.0.1, SVG Export Plug-In . SVG Version: 6.00 Build 0)  -->
<svg class="fernando" version="1.1" id="Layer_1" xmlns="http://www.w3.org/2000/svg" xmlns:xlink="http://www.w3.org/1999/xlink" x="0px" y="0px"
	 viewBox="7 0 1687.85 123" enable-background="new 0 0 1700.85 123" xml:space="preserve">
<g>
	<g>
		<path fill="#323232" d="M67.37,116.96H7.27V5.48h148.07v30.47H67.37v12.46h85.31v30.92H67.37V116.96z M8.97,115.26h56.7V77.64
			h85.31V50.12H65.67V34.26h87.98V7.18H8.97V115.26z"/>
	</g>
	<g>
		<path fill="#323232" d="M346.76,116.96H195.25V5.48h150.17v29.74h-90.08v10.1h87.21V75.8h-87.21v11.14h91.41v30.02H346.76z
			 M196.94,115.26h148.11V88.63h-91.41V74.1h87.21V47.02h-87.21v-13.5h90.08V7.18H196.94V115.26z"/>
	</g>
	<g>
		<path fill="#323232" d="M569.08,116.96h-61.13l-0.25-0.26c-0.92-0.95-1.38-3.28-1.38-6.94v-9.3c0-13.11-4.84-16.12-25.87-16.12
			H439.7v32.61h-59.91V5.48h126.04c52.71,0,59.82,15.8,59.82,31.25v0.74c0,16.17-15.73,22.87-28.09,25.63
			c19.53,2.93,29.42,11.32,29.42,24.98v20.21c0,4.3,0.8,5.44,1.85,6.48l0.25,0.25L569.08,116.96L569.08,116.96z M508.75,115.26
			h58.23c-1.11-1.38-1.7-3.16-1.7-6.97V88.08c0-14.06-10.92-21.89-33.39-23.94L525,63.51l6.83-1.06
			c11.99-1.85,32.11-7.56,32.11-24.98v-0.74c0-14.61-6.91-29.55-58.12-29.55H381.48v108.08h56.51V82.65h42.45
			c20.34,0,27.57,2.69,27.57,17.82v9.3C508.01,113.33,508.48,114.75,508.75,115.26z M490.18,53.52h-52.19V35.73h52.19
			c10.2,0,15.16,2.79,15.16,8.52v0.15C505.34,50.54,500.38,53.52,490.18,53.52z M439.69,51.82h50.49c12.07,0,13.46-4.23,13.46-7.41
			v-0.15c0-2.93-1.4-6.82-13.46-6.82h-50.49V51.82z"/>
	</g>
	<g>
		<path fill="#323232" d="M789.88,116.96H733.2l-0.23-0.18l-75.16-57.96v58.14h-58.57V5.48h60.3l0.23,0.18l71.53,55.16V5.48h58.57
			L789.88,116.96L789.88,116.96z M733.78,115.26h54.39V7.18H733v57.1l-74.04-57.1h-58.02v108.08h55.17v-59.9L733.78,115.26z"/>
	</g>
	<g>
		<path fill="#323232" d="M1025.67,116.96h-63.65l-9.73-16.38h-70.6l-9.73,16.38h-60.21l68.4-111.48h76.33l0.25,0.4L1025.67,116.96z
			 M962.98,115.26h59.63L955.53,7.18H881.1l-66.32,108.08h56.2l9.73-16.38h72.53L962.98,115.26z M938.02,72.99h-42.09l21.15-35.88
			L938.02,72.99z M898.91,71.29h36.15l-17.99-30.82L898.91,71.29z"/>
	</g>
	<g>
		<path fill="#323232" d="M1241.97,116.96h-56.67l-0.23-0.18l-75.16-57.96v58.14h-58.57V5.48h60.3l0.23,0.18l71.53,55.16V5.48h58.57
			V116.96z M1185.87,115.26h54.39V7.18h-55.17v57.1l-74.04-57.1h-58.02v108.08h55.17v-59.9L1185.87,115.26z"/>
	</g>
	<g>
		<path fill="#323232" d="M1368.79,116.96h-90.35V5.48h90.35c65.68,0,97.61,17.36,97.61,53.08v4.43c0,15.77-6.36,28.23-18.9,37.05
			C1431.53,111.27,1405.05,116.96,1368.79,116.96z M1280.13,115.26h88.66c35.91,0,62.06-5.59,77.73-16.61
			c6.52-4.58,11.34-10.2,14.33-16.7c2.55-5.55,3.85-11.93,3.85-18.96v-4.43c0-34.58-31.37-51.38-95.91-51.38h-88.66L1280.13,115.26
			L1280.13,115.26z M1360.2,86.57h-23.56V35.73h23.56c17.71,0,30.34,2.83,37.54,8.42c5.1,3.96,7.58,9.3,7.58,16.33v0.89
			C1405.32,83.96,1379.57,86.57,1360.2,86.57z M1338.34,84.87h21.86c43.42,0,43.42-17.07,43.42-23.5v-0.89
			c0-5.7,0-23.05-43.42-23.05h-21.86V84.87z"/>
	</g>
	<g>
		<path fill="#323232" d="M1598.17,118.88h-8.78c-35.88,0-62.17-6.58-78.14-19.56c-14.36-11.67-17.37-26.12-17.37-36.18v-4.43
			c0-10.11,3.03-24.58,17.45-36.06c15.91-12.67,42.17-19.09,78.06-19.09h8.78c36.12,0,62.49,6.42,78.37,19.09
			c11.34,9.04,17.33,21.51,17.33,36.06v4.43C1693.87,83.96,1681.44,118.88,1598.17,118.88z M1589.39,5.27
			c-35.03,0-93.81,6.94-93.81,53.45v4.43c0,20.18,12.19,54.04,93.81,54.04h8.78c35.11,0,94-7.02,94-54.04v-4.43
			c0-14.21-5.62-25.9-16.69-34.73c-15.57-12.42-41.58-18.72-77.31-18.72C1598.17,5.27,1589.39,5.27,1589.39,5.27z M1593.97,85.83
			c-14.64,0-39.21-3.18-39.21-24.46V59.9c0-15.84,13.13-23.87,39.02-23.87c32.25,0,39.02,12.98,39.02,23.87v1.48
			C1632.8,72.53,1626.06,85.83,1593.97,85.83z M1593.78,37.73c-24.76,0-37.32,7.46-37.32,22.17v1.48c0,10.38,6.51,22.76,37.51,22.76
			c24.29,0,37.13-7.87,37.13-22.76V59.9C1631.1,49.78,1624.63,37.73,1593.78,37.73z"/>
	</g>
</g>
</svg>
