<?xml version="1.0" encoding="utf-8"?>
<!-- Generator: Adobe Illustrator 24.0.1, SVG Export Plug-In . SVG Version: 6.00 Build 0)  -->
<svg class="fregate" version="1.1" id="Layer_1" xmlns="http://www.w3.org/2000/svg" xmlns:xlink="http://www.w3.org/1999/xlink" x="0px" y="0px"
	 viewBox="7.2 0 1401 121.87" enable-background="new 0 0 1414 121.87" xml:space="preserve">
<g>
	<g>
		<path fill="#323232" d="M154.5,6.62v28.77H66.52v14.17h85.31v29.22H66.52v37.63H8.12V6.62H154.5z"/>
	</g>
	<g>
		<path fill="#323232" d="M377.78,88.36v20.21c0,4.28,0.76,5.75,2.1,7.08v0.74h-59.92c-0.57-0.59-1.15-2.36-1.15-6.34v-9.3
			c0-14.17-6.3-16.97-26.72-16.97h-41.6v32.61h-58.21V6.62h125.19c51.15,0,58.97,14.76,58.97,30.4v0.74
			c0,16.67-17.56,23.46-32.83,25.82C361.36,65.2,377.78,70.95,377.78,88.36z M250.48,52.95h51.34c12.02,0,14.31-4.13,14.31-8.26
			v-0.15c0-3.84-2.29-7.67-14.31-7.67h-51.34L250.48,52.95L250.48,52.95z"/>
	</g>
	<g>
		<path fill="#323232" d="M564.03,6.62v28.04h-90.08v11.8h87.21v28.77h-87.21v12.84h91.41v28.33h-149.8V6.62H564.03z"/>
	</g>
	<g>
		<path fill="#323232" d="M682.92,118.02c-66.41,0-85.31-30.54-85.31-55.92v-2.36c0-24.64,18.32-55.04,95.8-55.04h6.68
			c80.92,0,93.32,26.71,93.32,41.17v0.89h-61.26c-1.53-2.8-6.49-10.03-35.31-10.03c-31.68,0-38.93,11.95-38.93,23.76v1.33
			c0,11.36,7.44,24.49,38.17,24.49c29.2,0,36.45-7.53,37.4-11.07h-41.99v-21.1h103.63v62.27H756c-1.15-3.69-4.96-9.89-8.02-13.43
			c-5.72,4.43-23.47,15.05-61.64,15.05h-3.42V118.02z"/>
	</g>
	<g>
		<path fill="#323232" d="M960.59,100.02h-71.57l-9.73,16.38h-58.21L888.45,6.62h75.38l68.13,109.78h-61.64L960.59,100.02z
			 M924.9,39.08l-19.66,33.35h39.12L924.9,39.08z"/>
	</g>
	<g>
		<path fill="#323232" d="M1099.13,39.82h-58.02V6.62h174.05v33.2h-58.02v76.58h-58.02V39.82H1099.13z"/>
	</g>
	<g>
		<path fill="#323232" d="M1402.95,6.62v28.04h-90.08v11.8h87.21v28.77h-87.21v12.84h91.41v28.33h-149.81V6.62H1402.95z"/>
	</g>
</g>
</svg>
