<?xml version="1.0" encoding="utf-8"?>
<!-- Generator: Adobe Illustrator 24.0.1, SVG Export Plug-In . SVG Version: 6.00 Build 0)  -->
<svg class="about-me" version="1.1" id="Layer_1" xmlns="http://www.w3.org/2000/svg" xmlns:xlink="http://www.w3.org/1999/xlink" x="0px" y="0px"
	 viewBox="0 0 136.98 53.52" enable-background="new 0 0 136.98 53.52" xml:space="preserve">
<g>
	<g>
		<path fill="#323232" d="M15.56,15.73H7.4l-1.22,2.8h-4.2l6.7-15.11h5.61l7.01,15.11H16.8L15.56,15.73z M11.42,6.46l-2.66,6.15h5.4
			L11.42,6.46z"/>
	</g>
	<g>
		<path fill="#323232" d="M31.51,3.42h11.03c4.33,0,5.4,1.89,5.4,3.57v0.22c0,1.91-1.65,2.82-2.78,2.99
			c1.71,0.28,3.53,1.3,3.53,3.74v0.22c0,2.05-1.24,4.37-6.09,4.37H31.51V3.42z M35.7,6.57v2.7h6.24c1.28,0,1.65-0.61,1.65-1.32V7.91
			c0-0.73-0.41-1.34-1.65-1.34H35.7z M35.7,12.23v2.99h6.56c1.46,0,1.89-0.77,1.89-1.52v-0.08c0-0.75-0.43-1.38-1.89-1.38H35.7z"/>
	</g>
	<g>
		<path fill="#323232" d="M69.06,3.17c7.07,0,9.08,4.14,9.08,7.45v0.61c0,3.25-2.01,7.53-9.08,7.53h-0.89
			c-7.07,0-9.08-4.29-9.08-7.53v-0.61c0-3.29,2.01-7.45,9.08-7.45H69.06z M73.79,10.79c0-1.87-0.91-4.16-5.18-4.16
			c-4.22,0-5.18,2.29-5.18,4.16v0.28c0,1.83,1.01,4.22,5.18,4.22c4.24,0,5.18-2.4,5.18-4.22V10.79z"/>
	</g>
	<g>
		<path fill="#323232" d="M97.5,18.75c-7.41,0-8.27-4.65-8.27-7.66V3.42h4.18v7.58c0,1.73,0.49,4.2,4.33,4.2h0.1
			c3.84,0,4.29-2.48,4.29-4.2V3.42h4.16v7.68c0,3.03-1.06,7.66-8.21,7.66H97.5z"/>
	</g>
	<g>
		<path fill="#323232" d="M122.97,6.87h-5.85V3.42h15.86v3.45h-5.85v11.66h-4.16V6.87z"/>
	</g>
	<g>
		<path fill="#323232" d="M3.62,32.21h5.57L14,42.44l4.96-10.24h5.22v15.11h-4.08v-9.89l-4.59,9.89h-3.27l-4.59-9.89v9.89H3.62
			V32.21z"/>
	</g>
	<g>
		<path fill="#323232" d="M49.88,32.21v3.29h-9.71v2.46h9.4v3.41h-9.4v2.62H50v3.33H36.04V32.21H49.88z"/>
	</g>
</g>
</svg>
