<?xml version="1.0" encoding="utf-8"?>
<!-- Generator: Adobe Illustrator 24.0.1, SVG Export Plug-In . SVG Version: 6.00 Build 0)  -->
<svg class="creative-director" version="1.1" id="Layer_1" xmlns="http://www.w3.org/2000/svg" xmlns:xlink="http://www.w3.org/1999/xlink" x="0px" y="0px"
	 viewBox="0 0 308.07 111.6" enable-background="new 0 0 308.07 111.6" xml:space="preserve">
<g>
	<g>
		<path fill="#323232" d="M17.81,15.53H9.64l-1.22,2.43h-4.2l6.7-13.09h5.61l7.01,13.09h-4.49L17.81,15.53z M13.67,7.5L11,12.83h5.4
			L13.67,7.5z"/>
	</g>
	<g>
		<path fill="#323232" d="M55.82,18.15c-6.91,0-8.73-3.83-8.73-6.51v-0.53c0-2.73,1.83-6.44,8.73-6.44h0.93
			c6.34,0,8.45,2.69,8.45,5.17v0.04H60.9c-0.06-0.37-0.63-2.22-4.61-2.22c-3.7,0-4.85,1.79-4.85,3.55v0.25
			c0,1.62,1.2,3.68,4.87,3.68c4.02,0,4.53-1.88,4.59-2.3h4.31v0.05c0,2.39-2.03,5.26-8.45,5.26H55.82z"/>
	</g>
	<g>
		<path fill="#323232" d="M93.02,15.05v1.35c0,0.99,0.1,1.25,0.24,1.46v0.09h-4.33c-0.06-0.09-0.14-0.33-0.14-0.92v-1.07
			c0-1.69-0.71-2.46-2.82-2.46h-5.44v4.45h-4.18V4.86h10.18c5.75,0,6.4,2.08,6.4,3.5v0.18c0,1.64-1.3,2.74-3.19,3.11
			C91.78,12.06,93.02,13.13,93.02,15.05z M80.52,10.53h5.83c1.71,0,2.17-0.63,2.17-1.39V9.1c0-0.76-0.47-1.35-2.17-1.35h-5.83V10.53
			z"/>
	</g>
	<g>
		<path fill="#323232" d="M118.23,4.86v2.85h-9.71v2.13h9.4v2.96h-9.4v2.27h9.83v2.89H104.4V4.86H118.23z"/>
	</g>
	<g>
		<path fill="#323232" d="M141.77,15.53h-8.16l-1.22,2.43h-4.2l6.7-13.09h5.61l7.01,13.09h-4.49L141.77,15.53z M137.63,7.5
			l-2.66,5.33h5.4L137.63,7.5z"/>
	</g>
	<g>
		<path fill="#323232" d="M160.91,7.86h-5.85V4.86h15.86v2.99h-5.85v10.1h-4.16V7.86z"/>
	</g>
	<g>
		<path fill="#323232" d="M186.04,17.95h-4.18V4.86h4.18V17.95z"/>
	</g>
	<g>
		<path fill="#323232" d="M203.31,17.95L196.3,4.86h4.88l4.91,9.92l4.94-9.92h4.55l-6.76,13.09H203.31z"/>
	</g>
	<g>
		<path fill="#323232" d="M239.67,4.86v2.85h-9.71v2.13h9.4v2.96h-9.4v2.27h9.83v2.89h-13.95V4.86H239.67z"/>
	</g>
	<g>
		<path fill="#323232" d="M17.81,44.1H9.64l-1.22,2.43h-4.2l6.7-13.09h5.61l7.01,13.09h-4.49L17.81,44.1z M13.67,36.08L11,41.41h5.4
			L13.67,36.08z"/>
	</g>
	<g>
		<path fill="#323232" d="M50.43,43.62v1.35c0,0.99,0.1,1.25,0.24,1.46v0.09h-4.33c-0.06-0.09-0.14-0.33-0.14-0.92v-1.07
			c0-1.69-0.71-2.46-2.82-2.46h-5.44v4.45h-4.18V33.44h10.18c5.75,0,6.4,2.08,6.4,3.5v0.18c0,1.64-1.3,2.74-3.19,3.11
			C49.19,40.63,50.43,41.71,50.43,43.62z M37.94,39.1h5.83c1.71,0,2.17-0.63,2.17-1.39v-0.04c0-0.76-0.47-1.35-2.17-1.35h-5.83V39.1
			z"/>
	</g>
	<g>
		<path fill="#323232" d="M66.53,36.43h-5.85v-2.99h15.86v2.99h-5.85v10.1h-4.16V36.43z"/>
	</g>
	<g>
		<path fill="#323232" d="M101.47,33.44h7.74c7.88,0,9.69,3.43,9.69,6.09v0.53c0,2.74-1.38,6.47-9.67,6.47h-7.76V33.44z
			 M105.65,43.61h3.37c5.08,0,5.52-2.15,5.52-3.62v-0.11c0-1.48-0.49-3.54-5.52-3.54h-3.37V43.61z"/>
	</g>
	<g>
		<path fill="#323232" d="M134.24,46.53h-4.18V33.44h4.18V46.53z"/>
	</g>
	<g>
		<path fill="#323232" d="M162.78,43.62v1.35c0,0.99,0.1,1.25,0.24,1.46v0.09h-4.33c-0.06-0.09-0.14-0.33-0.14-0.92v-1.07
			c0-1.69-0.71-2.46-2.82-2.46h-5.44v4.45h-4.18V33.44h10.18c5.75,0,6.4,2.08,6.4,3.5v0.18c0,1.64-1.3,2.74-3.19,3.11
			C161.54,40.63,162.78,41.71,162.78,43.62z M150.29,39.1h5.83c1.71,0,2.17-0.63,2.17-1.39v-0.04c0-0.76-0.47-1.35-2.17-1.35h-5.83
			V39.1z"/>
	</g>
	<g>
		<path fill="#323232" d="M187.99,33.44v2.85h-9.71v2.13h9.4v2.96h-9.4v2.27h9.83v2.89h-13.95V33.44H187.99z"/>
	</g>
	<g>
		<path fill="#323232" d="M207.66,46.72c-6.91,0-8.73-3.83-8.73-6.51v-0.53c0-2.73,1.83-6.44,8.73-6.44h0.93
			c6.34,0,8.45,2.69,8.45,5.17v0.04h-4.31c-0.06-0.37-0.63-2.22-4.61-2.22c-3.7,0-4.85,1.79-4.85,3.55v0.25
			c0,1.62,1.2,3.68,4.87,3.68c4.02,0,4.53-1.88,4.59-2.3h4.31v0.05c0,2.39-2.03,5.26-8.45,5.26H207.66z"/>
	</g>
	<g>
		<path fill="#323232" d="M232.89,36.43h-5.85v-2.99h15.86v2.99h-5.85v10.1h-4.16V36.43z"/>
	</g>
	<g>
		<path fill="#323232" d="M262.63,33.23c7.07,0,9.08,3.59,9.08,6.46v0.53c0,2.81-2.01,6.53-9.08,6.53h-0.89
			c-7.07,0-9.08-3.71-9.08-6.53v-0.53c0-2.85,2.01-6.46,9.08-6.46H262.63z M267.36,39.82c0-1.62-0.91-3.61-5.18-3.61
			c-4.22,0-5.18,1.99-5.18,3.61v0.25c0,1.58,1.01,3.66,5.18,3.66c4.24,0,5.18-2.08,5.18-3.66V39.82z"/>
	</g>
	<g>
		<path fill="#323232" d="M299.59,43.62v1.35c0,0.99,0.1,1.25,0.24,1.46v0.09h-4.33c-0.06-0.09-0.14-0.33-0.14-0.92v-1.07
			c0-1.69-0.71-2.46-2.82-2.46h-5.44v4.45h-4.18V33.44h10.18c5.75,0,6.4,2.08,6.4,3.5v0.18c0,1.64-1.3,2.74-3.19,3.11
			C298.35,40.63,299.59,41.71,299.59,43.62z M287.09,39.1h5.83c1.71,0,2.17-0.63,2.17-1.39v-0.04c0-0.76-0.47-1.35-2.17-1.35h-5.83
			V39.1z"/>
	</g>
	<g>
		<path fill="#323232" d="M5.87,62.01h11.03c4.33,0,5.4,1.64,5.4,3.1v0.19c0,1.65-1.65,2.45-2.78,2.59
			c1.71,0.25,3.53,1.13,3.53,3.24v0.19c0,1.78-1.24,3.78-6.09,3.78H5.87V62.01z M10.05,64.74v2.34h6.24c1.28,0,1.65-0.53,1.65-1.14
			V65.9c0-0.63-0.41-1.16-1.65-1.16H10.05z M10.05,69.65v2.59h6.56c1.46,0,1.89-0.67,1.89-1.32v-0.07c0-0.65-0.43-1.2-1.89-1.2
			H10.05z"/>
	</g>
	<g>
		<path fill="#323232" d="M45.74,72.67h-8.16l-1.22,2.43h-4.2l6.7-13.09h5.61l7.01,13.09h-4.49L45.74,72.67z M41.6,64.65l-2.66,5.33
			h5.4L41.6,64.65z"/>
	</g>
	<g>
		<path fill="#323232" d="M68.68,75.33c-7.09,0-7.9-2.78-7.9-4.35v-0.19h4.55c0.06,0.58,0.34,1.88,3.55,1.88h0.14
			c3.15,0,3.55-0.81,3.55-1.57c0-0.79-0.59-1.27-3.09-1.35l-2.01-0.05c-4.96-0.14-6.54-1.85-6.54-3.82v-0.16
			c0-2.04,1.26-3.87,7.51-3.87h0.69c6.68,0,7.6,2.11,7.6,3.84v0.19h-4.49c-0.1-0.58-0.47-1.44-3.39-1.44h-0.2
			c-2.68,0-3.31,0.44-3.31,1.16c0,0.67,0.55,1.16,2.92,1.25l2.09,0.07c5.38,0.19,6.68,1.71,6.68,3.84v0.21
			c0,1.92-1.02,4.36-7.78,4.36H68.68z"/>
	</g>
	<g>
		<path fill="#323232" d="M102.14,62.01v2.85h-9.71v2.13h9.4v2.96h-9.4v2.27h9.83v2.89H88.31V62.01H102.14z"/>
	</g>
	<g>
		<path fill="#323232" d="M113.74,62.01h7.74c7.88,0,9.69,3.43,9.69,6.09v0.53c0,2.74-1.38,6.47-9.67,6.47h-7.76V62.01z
			 M117.92,72.18h3.37c5.08,0,5.52-2.15,5.52-3.62v-0.11c0-1.48-0.49-3.54-5.52-3.54h-3.37V72.18z"/>
	</g>
	<g>
		<path fill="#323232" d="M160.51,75.1h-4.18V62.01h4.18V75.1z"/>
	</g>
	<g>
		<path fill="#323232" d="M176.45,66.62v8.48h-4.08V62.01h4.31l8.83,8.43v-8.43h4.06V75.1h-4.1L176.45,66.62z"/>
	</g>
	<g>
		<path fill="#323232" d="M13.16,103.9c-7.09,0-7.9-2.78-7.9-4.35v-0.19h4.55c0.06,0.58,0.34,1.88,3.55,1.88h0.14
			c3.15,0,3.55-0.81,3.55-1.57c0-0.79-0.59-1.27-3.09-1.35l-2.01-0.05C7,98.13,5.42,96.43,5.42,94.46V94.3
			c0-2.04,1.26-3.87,7.51-3.87h0.69c6.68,0,7.6,2.11,7.6,3.84v0.19h-4.49c-0.1-0.58-0.47-1.44-3.39-1.44h-0.2
			c-2.68,0-3.31,0.44-3.31,1.16c0,0.67,0.55,1.16,2.92,1.25l2.09,0.07c5.38,0.19,6.68,1.71,6.68,3.84v0.21
			c0,1.92-1.02,4.36-7.78,4.36H13.16z"/>
	</g>
	<g>
		<path fill="#323232" d="M44.42,101.25h-8.16l-1.22,2.43h-4.2l6.7-13.09h5.61l7.01,13.09h-4.49L44.42,101.25z M40.28,93.22
			l-2.66,5.33h5.4L40.28,93.22z"/>
	</g>
	<g>
		<path fill="#323232" d="M69.07,90.37c7.07,0,9.08,3.59,9.08,6.46v0.53c0,2.81-2.01,6.53-9.08,6.53h-0.89
			c-7.07,0-9.08-3.71-9.08-6.53v-0.53c0-2.85,2.01-6.46,9.08-6.46H69.07z M73.8,96.97c0-1.62-0.91-3.61-5.18-3.61
			c-4.22,0-5.18,1.99-5.18,3.61v0.25c0,1.58,1.01,3.66,5.18,3.66c4.24,0,5.18-2.08,5.18-3.66V96.97z"/>
	</g>
	<g>
		<path fill="#323232" d="M107.52,99.49v4.19h-4.18V90.59h10.24c4.77,0,6.25,1.81,6.25,4.35v0.19c0,2.48-1.54,4.36-6.25,4.36H107.52
			z M107.52,96.57h5.75c1.54,0,2.21-0.56,2.21-1.5V95c0-0.92-0.67-1.5-2.21-1.5h-5.75V96.57z"/>
	</g>
	<g>
		<path fill="#323232" d="M141.31,101.25h-8.16l-1.22,2.43h-4.2l6.7-13.09h5.61l7.01,13.09h-4.49L141.31,101.25z M137.16,93.22
			l-2.66,5.33h5.4L137.16,93.22z"/>
	</g>
	<g>
		<path fill="#323232" d="M164.92,103.87c-7.41,0-8.27-4.03-8.27-6.63v-6.65h4.18v6.56c0,1.5,0.49,3.64,4.33,3.64h0.1
			c3.84,0,4.29-2.15,4.29-3.64v-6.56h4.16v6.65c0,2.62-1.06,6.63-8.21,6.63H164.92z"/>
	</g>
	<g>
		<path fill="#323232" d="M189.66,90.59v10.01h9.24v3.08h-13.42V90.59H189.66z"/>
	</g>
	<g>
		<path fill="#323232" d="M218.59,90.37c7.07,0,9.08,3.59,9.08,6.46v0.53c0,2.81-2.01,6.53-9.08,6.53h-0.89
			c-7.07,0-9.08-3.71-9.08-6.53v-0.53c0-2.85,2.01-6.46,9.08-6.46H218.59z M223.32,96.97c0-1.62-0.91-3.61-5.18-3.61
			c-4.22,0-5.18,1.99-5.18,3.61v0.25c0,1.58,1.01,3.66,5.18,3.66c4.24,0,5.18-2.08,5.18-3.66V96.97z"/>
	</g>
	<g>
		<path fill="#323232" d="M242.66,103.68h-4.73v-3.41h4.73V103.68z"/>
	</g>
</g>
</svg>
