<?xml version="1.0" encoding="utf-8"?>
<!-- Generator: Adobe Illustrator 24.0.1, SVG Export Plug-In . SVG Version: 6.00 Build 0)  -->
<svg class="currently" version="1.1" id="Layer_1" xmlns="http://www.w3.org/2000/svg" xmlns:xlink="http://www.w3.org/1999/xlink" x="0px" y="0px"
	 viewBox="8.8 0 347 52.61" enable-background="new 0 0 347 52.61" xml:space="preserve">
<g>
	<path fill="#323232" d="M19.13,17.24c-6.86,0-8.67-3.83-8.67-6.51v-0.53c0-2.73,1.82-6.44,8.67-6.44h0.93
		c6.29,0,8.39,2.69,8.39,5.17v0.04h-4.28c-0.06-0.37-0.62-2.22-4.58-2.22c-3.67,0-4.82,1.79-4.82,3.55v0.25
		c0,1.62,1.19,3.68,4.84,3.68c3.99,0,4.5-1.88,4.56-2.3h4.28v0.05c0,2.39-2.02,5.26-8.39,5.26H19.13z"/>
	<path fill="#323232" d="M47.61,17.24c-7.36,0-8.21-4.03-8.21-6.63V3.96h4.16v6.56c0,1.5,0.48,3.64,4.3,3.64h0.1
		c3.81,0,4.26-2.15,4.26-3.64V3.96h4.13v6.65c0,2.62-1.05,6.63-8.15,6.63H47.61z"/>
	<path fill="#323232" d="M84.59,14.15v1.35c0,0.99,0.1,1.25,0.24,1.46v0.09h-4.3c-0.06-0.09-0.14-0.33-0.14-0.92v-1.07
		c0-1.69-0.71-2.46-2.8-2.46h-5.41v4.45h-4.16V3.96h10.11c5.71,0,6.35,2.08,6.35,3.5v0.18c0,1.64-1.29,2.74-3.17,3.11
		C83.36,11.16,84.59,12.23,84.59,14.15z M72.18,9.63h5.79c1.69,0,2.16-0.63,2.16-1.39V8.2c0-0.76-0.46-1.35-2.16-1.35h-5.79V9.63z"
		/>
	<path fill="#323232" d="M112.45,14.15v1.35c0,0.99,0.1,1.25,0.24,1.46v0.09h-4.3c-0.06-0.09-0.14-0.33-0.14-0.92v-1.07
		c0-1.69-0.71-2.46-2.8-2.46h-5.41v4.45h-4.16V3.96h10.11c5.71,0,6.35,2.08,6.35,3.5v0.18c0,1.64-1.29,2.74-3.17,3.11
		C111.22,11.16,112.45,12.23,112.45,14.15z M100.04,9.63h5.79c1.69,0,2.16-0.63,2.16-1.39V8.2c0-0.76-0.46-1.35-2.16-1.35h-5.79
		V9.63z"/>
	<path fill="#323232" d="M137.48,3.96v2.85h-9.64v2.13h9.34v2.96h-9.34v2.27h9.76v2.89h-13.86V3.96H137.48z"/>
	<path fill="#323232" d="M153.06,8.57v8.48H149V3.96h4.28l8.78,8.43V3.96h4.03v13.09h-4.07L153.06,8.57z"/>
	<path fill="#323232" d="M182.75,6.95h-5.81V3.96h15.75v2.99h-5.81v10.1h-4.14V6.95z"/>
	<path fill="#323232" d="M207.71,3.96v10.01h9.18v3.08h-13.33V3.96H207.71z"/>
	<path fill="#323232" d="M230.12,12.26l-7.44-8.3h5.14l4.5,5.19l4.5-5.19h4.64l-7.18,8.32v4.77h-4.16V12.26z"/>
	<path fill="#323232" d="M22.98,43.18h-8.11l-1.21,2.43H9.48l6.66-13.09h5.57l6.96,13.09h-4.46L22.98,43.18z M18.86,35.16
		l-2.64,5.33h5.37L18.86,35.16z"/>
	<path fill="#323232" d="M41.98,35.51h-5.81v-2.99h15.75v2.99h-5.81v10.1h-4.14V35.51z"/>
	<path fill="#323232" d="M88.54,43.18h-8.11l-1.21,2.43h-4.18l6.66-13.09h5.57l6.96,13.09h-4.46L88.54,43.18z M84.43,35.16
		l-2.64,5.33h5.37L84.43,35.16z"/>
	<path fill="#323232" d="M108.54,32.52v10.01h9.18v3.08h-13.33V32.52H108.54z"/>
	<path fill="#323232" d="M128.63,32.52h5.53l4.78,8.87l4.92-8.87h5.18v13.09h-4.05v-8.57l-4.56,8.57h-3.25l-4.56-8.57v8.57h-3.99
		V32.52z"/>
	<path fill="#323232" d="M172.69,43.18h-8.11l-1.21,2.43h-4.18l6.66-13.09h5.57l6.96,13.09h-4.46L172.69,43.18z M168.57,35.16
		l-2.64,5.33h5.37L168.57,35.16z"/>
	<path fill="#323232" d="M192.68,41.42v4.19h-4.16V32.52h10.17c4.74,0,6.21,1.81,6.21,4.35v0.19c0,2.48-1.53,4.36-6.21,4.36H192.68z
		 M192.68,38.5h5.71c1.53,0,2.2-0.56,2.2-1.5v-0.07c0-0.92-0.67-1.5-2.2-1.5h-5.71V38.5z"/>
	<path fill="#323232" d="M215.88,32.52h10.95c4.3,0,5.37,1.64,5.37,3.1v0.19c0,1.65-1.63,2.45-2.76,2.59
		c1.69,0.25,3.51,1.13,3.51,3.24v0.19c0,1.78-1.23,3.78-6.05,3.78h-11.01V32.52z M220.04,35.25v2.34h6.19
		c1.27,0,1.63-0.53,1.63-1.14v-0.04c0-0.63-0.4-1.16-1.63-1.16H220.04z M220.04,40.15v2.59h6.52c1.45,0,1.88-0.67,1.88-1.32v-0.07
		c0-0.65-0.42-1.2-1.88-1.2H220.04z"/>
	<path fill="#323232" d="M243.92,32.52h10.95c4.3,0,5.37,1.64,5.37,3.1v0.19c0,1.65-1.63,2.45-2.76,2.59
		c1.7,0.25,3.51,1.13,3.51,3.24v0.19c0,1.78-1.23,3.78-6.05,3.78h-11.01V32.52z M248.08,35.25v2.34h6.19c1.27,0,1.63-0.53,1.63-1.14
		v-0.04c0-0.63-0.4-1.16-1.63-1.16H248.08z M248.08,40.15v2.59h6.52c1.45,0,1.88-0.67,1.88-1.32v-0.07c0-0.65-0.42-1.2-1.88-1.2
		H248.08z"/>
	<path fill="#323232" d="M271.96,32.52h7.69c7.83,0,9.62,3.43,9.62,6.09v0.53c0,2.74-1.37,6.47-9.6,6.47h-7.71V32.52z M276.12,42.69
		h3.35c5.04,0,5.49-2.15,5.49-3.62v-0.11c0-1.48-0.48-3.54-5.49-3.54h-3.35V42.69z"/>
	<path fill="#323232" d="M309.59,32.31c7.02,0,9.02,3.59,9.02,6.46v0.53c0,2.81-2,6.53-9.02,6.53h-0.89c-7.02,0-9.02-3.71-9.02-6.53
		v-0.53c0-2.85,2-6.46,9.02-6.46H309.59z M314.29,38.91c0-1.62-0.91-3.61-5.14-3.61c-4.2,0-5.14,1.99-5.14,3.61v0.25
		c0,1.58,1.01,3.66,5.14,3.66c4.22,0,5.14-2.08,5.14-3.66V38.91z"/>
	<path fill="#323232" d="M333.49,45.61h-4.7V42.2h4.7V45.61z"/>
</g>
</svg>
