<?xml version="1.0" encoding="utf-8"?>
<!-- Generator: Adobe Illustrator 24.3.0, SVG Export Plug-In . SVG Version: 6.00 Build 0)  -->
<svg version="1.1" id="Layer_1" xmlns="http://www.w3.org/2000/svg" xmlns:xlink="http://www.w3.org/1999/xlink" x="0px" y="0px"
	 viewBox="8.8 0 352.4 52.6" style="enable-background:new 0 0 352.4 52.6;" xml:space="preserve">
<style type="text/css">
	.st0{fill:#323232;}
</style>
<path class="st0" d="M19.1,17.2c-6.9,0-8.7-3.8-8.7-6.5v-0.5c0-2.7,1.8-6.4,8.7-6.4h0.9c6.3,0,8.4,2.7,8.4,5.2v0h-4.3
	c-0.1-0.4-0.6-2.2-4.6-2.2c-3.7,0-4.8,1.8-4.8,3.6v0.2c0,1.6,1.2,3.7,4.8,3.7c4,0,4.5-1.9,4.6-2.3h4.3V12c0,2.4-2,5.3-8.4,5.3
	C20.1,17.2,19.1,17.2,19.1,17.2z"/>
<path class="st0" d="M47.6,17.2c-7.4,0-8.2-4-8.2-6.6V4h4.2v6.6c0,1.5,0.5,3.6,4.3,3.6H48c3.8,0,4.3-2.2,4.3-3.6V4h4.1v6.7
	c0,2.6-1,6.6-8.1,6.6C48.2,17.2,47.6,17.2,47.6,17.2z"/>
<path class="st0" d="M84.6,14.1v1.4c0,1,0.1,1.2,0.2,1.5V17h-4.3c-0.1-0.1-0.1-0.3-0.1-0.9v-1.1c0-1.7-0.7-2.5-2.8-2.5h-5.4V17H68V4
	h10.1c5.7,0,6.3,2.1,6.3,3.5v0.2c0,1.6-1.3,2.7-3.2,3.1C83.4,11.2,84.6,12.2,84.6,14.1z M72.2,9.6H78c1.7,0,2.2-0.6,2.2-1.4v0
	c0-0.8-0.5-1.3-2.2-1.3h-5.8V9.6z"/>
<path class="st0" d="M112.4,14.1v1.4c0,1,0.1,1.2,0.2,1.5V17h-4.3c-0.1-0.1-0.1-0.3-0.1-0.9v-1.1c0-1.7-0.7-2.5-2.8-2.5H100V17h-4.2
	V4H106c5.7,0,6.3,2.1,6.3,3.5v0.2c0,1.6-1.3,2.7-3.2,3.1C111.2,11.2,112.4,12.2,112.4,14.1z M100,9.6h5.8c1.7,0,2.2-0.6,2.2-1.4v0
	c0-0.8-0.5-1.3-2.2-1.3H100V9.6z"/>
<path class="st0" d="M137.5,4v2.8h-9.6v2.1h9.3v3h-9.3v2.3h9.8v2.9h-13.9V4H137.5z"/>
<path class="st0" d="M153.1,8.6V17H149V4h4.3l8.8,8.4V4h4V17H162L153.1,8.6z"/>
<path class="st0" d="M182.8,6.9h-5.8V4h15.8v3h-5.8V17h-4.1L182.8,6.9L182.8,6.9z"/>
<path class="st0" d="M207.7,4v10h9.2V17h-13.3V4H207.7z"/>
<path class="st0" d="M230.1,12.3L222.7,4h5.1l4.5,5.2l4.5-5.2h4.6l-7.2,8.3V17h-4.2V12.3z"/>
<path class="st0" d="M281.5,14.7h-8.1l-1.2,2.4H268l6.7-13.1h5.6l7,13.1h-4.5L281.5,14.7z M277.4,6.7l-2.6,5.3h5.4L277.4,6.7z"/>
<path class="st0" d="M300.5,7h-5.8v-3h15.8v3h-5.8v10.1h-4.1L300.5,7L300.5,7z"/>
<path class="st0" d="M348,45.6h-4.7v-3.4h4.7V45.6z"/>
<g>
	<path class="st0" d="M10.3,32.3h7.5c7.6,0,9.3,3.4,9.3,6.1v0.5c0,2.7-1.3,6.5-9.3,6.5h-7.5V32.3z M14.3,42.5h3.2
		c4.9,0,5.3-2.1,5.3-3.6v-0.1c0-1.5-0.5-3.5-5.3-3.5h-3.2V42.5z"/>
	<path class="st0" d="M47.3,43h-7.9l-1.2,2.4h-4l6.5-13.1H46l6.7,13.1h-4.3L47.3,43z M43.3,34.9l-2.6,5.3h5.2L43.3,34.9z"/>
	<path class="st0" d="M65.1,45.4l-6.7-13.1H63l4.7,9.9l4.8-9.9h4.4l-6.5,13.1H65.1z"/>
	<path class="st0" d="M89.2,45.4h-4V32.3h4V45.4z"/>
	<path class="st0" d="M99.1,32.3h7.5c7.6,0,9.3,3.4,9.3,6.1v0.5c0,2.7-1.3,6.5-9.3,6.5h-7.5V32.3z M103.1,42.5h3.2
		c4.9,0,5.3-2.1,5.3-3.6v-0.1c0-1.5-0.5-3.5-5.3-3.5h-3.2V42.5z"/>
	<path class="st0" d="M144,45.6c-6.8,0-7.6-2.8-7.6-4.3v-0.2h4.4c0.1,0.6,0.3,1.9,3.4,1.9h0.1c3,0,3.4-0.8,3.4-1.6
		c0-0.8-0.6-1.3-3-1.4l-1.9-0.1c-4.8-0.1-6.3-1.8-6.3-3.8V36c0-2,1.2-3.9,7.2-3.9h0.7c6.4,0,7.3,2.1,7.3,3.8v0.2h-4.3
		c-0.1-0.6-0.4-1.4-3.3-1.4H144c-2.6,0-3.2,0.4-3.2,1.2c0,0.7,0.5,1.2,2.8,1.2l2,0.1c5.2,0.2,6.4,1.7,6.4,3.8v0.2
		c0,1.9-1,4.4-7.5,4.4H144z"/>
	<path class="st0" d="M172.5,43h-7.9l-1.2,2.4h-4l6.5-13.1h5.4l6.7,13.1h-4.3L172.5,43z M168.5,34.9l-2.6,5.3h5.2L168.5,34.9z"/>
	<path class="st0" d="M194.7,32.1c6.8,0,8.7,3.6,8.7,6.5v0.5c0,2.8-1.9,6.5-8.7,6.5h-0.9c-6.8,0-8.7-3.7-8.7-6.5v-0.5
		c0-2.9,1.9-6.5,8.7-6.5H194.7z M199.3,38.7c0-1.6-0.9-3.6-5-3.6c-4.1,0-5,2-5,3.6v0.2c0,1.6,1,3.7,5,3.7c4.1,0,5-2.1,5-3.7V38.7z"
		/>
	<path class="st0" d="M228.6,41.2v4.2h-4V32.3h9.9c4.6,0,6,1.8,6,4.3v0.2c0,2.5-1.5,4.4-6,4.4H228.6z M228.6,38.3h5.5
		c1.5,0,2.1-0.6,2.1-1.5v-0.1c0-0.9-0.6-1.5-2.1-1.5h-5.5V38.3z"/>
	<path class="st0" d="M259.6,43h-7.9l-1.2,2.4h-4l6.5-13.1h5.4l6.7,13.1h-4.3L259.6,43z M255.6,34.9l-2.6,5.3h5.2L255.6,34.9z"/>
	<path class="st0" d="M280.7,45.6c-7.1,0-8-4-8-6.6v-6.7h4v6.6c0,1.5,0.5,3.6,4.2,3.6h0.1c3.7,0,4.1-2.1,4.1-3.6v-6.6h4v6.7
		c0,2.6-1,6.6-7.9,6.6H280.7z"/>
	<path class="st0" d="M303,32.3v10h8.9v3.1H299V32.3H303z"/>
	<path class="st0" d="M329.3,32.1c6.8,0,8.7,3.6,8.7,6.5v0.5c0,2.8-1.9,6.5-8.7,6.5h-0.9c-6.8,0-8.7-3.7-8.7-6.5v-0.5
		c0-2.9,1.9-6.5,8.7-6.5H329.3z M333.9,38.7c0-1.6-0.9-3.6-5-3.6c-4.1,0-5,2-5,3.6v0.2c0,1.6,1,3.7,5,3.7c4.1,0,5-2.1,5-3.7V38.7z"
		/>
</g>
</svg>
