<?xml version="1.0" encoding="utf-8"?>
<!-- Generator: Adobe Illustrator 24.0.1, SVG Export Plug-In . SVG Version: 6.00 Build 0)  -->
<svg version="1.1" id="Layer_1" xmlns="http://www.w3.org/2000/svg" xmlns:xlink="http://www.w3.org/1999/xlink" x="0px" y="0px"
	 viewBox="0 0 500 500" enable-background="new 0 0 500 500" xml:space="preserve">
<g>
	<path fill="#323232" d="M361.88,2.92h-222.6C63.46,2.92,2,64.13,2,139.65v221.71c0,75.51,61.46,136.73,137.28,136.73h114.98V329.65h-63.57v-72.09
		h63.57v-54.94c0-62.5,37.38-97.02,94.57-97.02c27.4,0,56.05,4.87,56.05,4.87v61.37H373.3c-31.1,0-40.8,19.22-40.8,38.94v46.78
		h69.44l-11.1,72.09H332.5v168.43h29.38c75.82,0,137.28-61.21,137.28-136.73V139.65C499.16,64.13,437.7,2.92,361.88,2.92z" />
</g>
</svg>
