<?xml version="1.0" encoding="utf-8"?>
<!-- Generator: Adobe Illustrator 24.0.1, SVG Export Plug-In . SVG Version: 6.00 Build 0)  -->
<svg version="1.1" id="Layer_1" xmlns="http://www.w3.org/2000/svg" xmlns:xlink="http://www.w3.org/1999/xlink" x="0px" y="0px"
	 viewBox="0 0 500 500" enable-background="new 0 0 500 500" xml:space="preserve">
<g>
	<path fill="#323232" d="M361.45,1.72H138.79C62.95,1.72,1.48,63.2,1.48,139.03v222.66C1.48,437.52,62.95,499,138.79,499h222.66
		c75.84,0,137.31-61.48,137.31-137.31V139.03C498.76,63.2,437.28,1.72,361.45,1.72z M250.12,384.56
		c-70.36,0-127.39-57.04-127.39-127.39s57.04-127.39,127.39-127.39s127.39,57.04,127.39,127.39S320.47,384.56,250.12,384.56z
		 M382.54,146.66c-16.44,0-29.77-13.33-29.77-29.77s13.33-29.77,29.77-29.77s29.77,13.33,29.77,29.77S398.98,146.66,382.54,146.66z"
		/>
	<ellipse fill="#323232" transform="matrix(0.1891 -0.982 0.982 0.1891 -49.7108 454.1414)" cx="250.12" cy="257.17" rx="82.69" ry="82.69"/>
</g>
</svg>
