<?xml version="1.0" encoding="utf-8"?>
<!-- Generator: Adobe Illustrator 24.0.1, SVG Export Plug-In . SVG Version: 6.00 Build 0)  -->
<svg version="1.1" id="Layer_1" xmlns="http://www.w3.org/2000/svg" xmlns:xlink="http://www.w3.org/1999/xlink" x="0px" y="0px"
	 viewBox="0 0 500 500" enable-background="new 0 0 500 500" xml:space="preserve">
<path  fill="#323232" d="M361.32,3H139.68C64.19,3,3,64.19,3,139.68v221.64C3,436.81,64.19,498,139.68,498h221.64C436.81,498,498,436.81,498,361.32
	V139.68C498,64.19,436.81,3,361.32,3z M160.47,401.3c0.01,3.75-1.04,5.16-4.93,5.13c-19.19-0.15-38.39-0.14-57.58-0.01
	c-3.73,0.02-5.02-1.07-5.01-4.99c0.15-34.07,0.08-68.14,0.08-102.2c0-33.79,0-67.58,0-101.37c0-5.52,0.01-5.53,5.4-5.53
	c18.92-0.01,37.83,0.09,56.75-0.08c3.88-0.04,5.3,0.92,5.3,5.06C160.37,265.31,160.38,333.3,160.47,401.3z M126.65,163.81
	c-21.59,0-38.63-16.99-38.64-38.53c-0.01-21.79,17.05-38.92,38.75-38.92c21.55,0.01,38.74,17.34,38.71,39.02
	C165.44,146.79,148.24,163.81,126.65,163.81z M402.92,406.44c-18.49-0.17-36.99-0.07-55.48-0.08c-6.31,0-6.33-0.02-6.33-6.21
	c-0.01-34.89,0.18-69.79-0.13-104.68c-0.08-8.81-0.84-17.79-2.8-26.35c-3.46-15.12-13.58-22.61-29.17-22.74
	c-4.81-0.04-9.79,0.15-14.42,1.31c-15.6,3.9-22.22,15.68-24.69,30.27c-1.22,7.21-1.67,14.61-1.7,21.93
	c-0.17,33.64-0.07,67.28-0.08,100.92c0,5.52-0.01,5.55-5.54,5.55c-18.77,0.01-37.54-0.08-56.32,0.07c-3.98,0.03-5.61-0.9-5.6-5.32
	c0.13-67.84,0.13-135.68,0-203.52c-0.01-4.24,1.22-5.42,5.42-5.37c18.07,0.22,36.15,0.23,54.23-0.01c4.34-0.06,5.48,1.36,5.32,5.47
	c-0.29,7.46-0.08,14.95-0.08,23.57c11.22-17.53,25.84-28.57,44.97-32.54c20.16-4.18,40.11-2.4,58.98,6.18
	c20.07,9.13,30.03,26.37,34.34,46.91c2.55,12.14,4.12,24.69,4.28,37.08c0.52,40.72,0.13,81.46,0.29,122.19
	C408.44,405.45,406.96,406.47,402.92,406.44z"/>
</svg>
