<?xml version="1.0" encoding="utf-8"?>
<!-- Generator: Adobe Illustrator 24.0.1, SVG Export Plug-In . SVG Version: 6.00 Build 0)  -->
<svg version="1.1" id="Layer_1" xmlns="http://www.w3.org/2000/svg" xmlns:xlink="http://www.w3.org/1999/xlink" x="0px" y="0px"
	 viewBox="0 0 359 36" enable-background="new 0 0 359 36" xml:space="preserve">
<g>
	<path fill="#323232" d="M24.84,26.58H10.42l-2.15,4.69H0.84L12.68,6.01h9.9l12.38,25.26h-7.93L24.84,26.58z M17.52,11.1l-4.7,10.29
		h9.54L17.52,11.1z"/>
	<path fill="#323232" d="M52.99,6.01h19.48c7.64,0,9.54,3.16,9.54,5.98v0.37c0,3.19-2.91,4.72-4.92,4.99
		c3.01,0.48,6.24,2.17,6.24,6.25v0.37c0,3.43-2.19,7.3-10.76,7.3H52.99V6.01z M60.38,11.27v4.52H71.4c2.26,0,2.91-1.02,2.91-2.21
		v-0.07c0-1.22-0.72-2.24-2.91-2.24H60.38z M60.38,20.74v4.99h11.59c2.58,0,3.34-1.29,3.34-2.55v-0.14c0-1.26-0.75-2.31-3.34-2.31
		H60.38z"/>
	<path fill="#323232" d="M119.28,5.6c12.48,0,16.04,6.93,16.04,12.46v1.02c0,5.43-3.55,12.6-16.04,12.6h-1.58
		c-12.48,0-16.04-7.16-16.04-12.6v-1.02c0-5.5,3.55-12.46,16.04-12.46H119.28z M127.64,18.33c0-3.12-1.61-6.96-9.15-6.96
		c-7.46,0-9.15,3.84-9.15,6.96v0.48c0,3.06,1.79,7.06,9.15,7.06c7.5,0,9.15-4.01,9.15-7.06V18.33z"/>
	<path fill="#323232" d="M169.5,31.64c-13.09,0-14.6-7.77-14.6-12.8V6.01h7.39v12.66c0,2.89,0.86,7.03,7.64,7.03h0.18
		c6.78,0,7.57-4.14,7.57-7.03V6.01h7.35v12.83c0,5.06-1.87,12.8-14.49,12.8H169.5z"/>
	<path fill="#323232" d="M214.47,11.78h-10.33V6.01h28.02v5.77h-10.33v19.49h-7.35V11.78z"/>
	<path fill="#323232" d="M276.17,6.01h9.83l8.5,17.11l8.75-17.11h9.22v25.26h-7.21V14.73l-8.11,16.53h-5.78l-8.11-16.53v16.53h-7.1
		V6.01z"/>
	<path fill="#323232" d="M357.84,6.01v5.5h-17.15v4.11h16.61v5.7h-16.61v4.38h17.36v5.57h-24.64V6.01H357.84z"/>
</g>
</svg>
