<?xml version="1.0" encoding="utf-8"?>
<!-- Generator: Adobe Illustrator 24.0.1, SVG Export Plug-In . SVG Version: 6.00 Build 0)  -->
<svg version="1.1" id="Layer_1" xmlns="http://www.w3.org/2000/svg" xmlns:xlink="http://www.w3.org/1999/xlink" x="0px" y="0px"
	 viewBox="0 0 727 36" enable-background="new 0 0 727 36" xml:space="preserve">
<g>
	<path fill="#323232" d="M25.07,5.95v5.6H8.1v4.52h16.47v5.77H8.1v9.37H0.75V5.95H25.07z"/>
	<path fill="#323232" d="M69.58,5.95v5.5H52.43v4.11h16.61v5.7H52.43v4.38H69.8v5.57H45.15V5.95H69.58z"/>
	<path fill="#323232" d="M119.51,25.61v2.61c0,1.9,0.18,2.41,0.43,2.82v0.17h-7.64c-0.11-0.17-0.25-0.64-0.25-1.77v-2.07
		c0-3.26-1.26-4.75-4.99-4.75h-9.61v8.59h-7.39V5.95h17.97c10.15,0,11.3,4.01,11.3,6.76v0.34c0,3.16-2.3,5.3-5.63,6.01
		C117.32,19.84,119.51,21.91,119.51,25.61z M97.45,16.89h10.3c3.01,0,3.84-1.22,3.84-2.68v-0.07c0-1.46-0.83-2.62-3.84-2.62h-10.3
		V16.89z"/>
	<path fill="#323232" d="M146.8,14.85v16.36h-7.21V5.95h7.6l15.61,16.26V5.95h7.17v25.26h-7.25L146.8,14.85z"/>
	<path fill="#323232" d="M212.01,26.53h-14.42l-2.15,4.68h-7.43l11.84-25.26h9.9l12.38,25.26h-7.93L212.01,26.53z M204.69,11.05
		l-4.7,10.29h9.54L204.69,11.05z"/>
	<path fill="#323232" d="M247.38,14.85v16.36h-7.21V5.95h7.6l15.61,16.26V5.95h7.17v25.26h-7.25L247.38,14.85z"/>
	<path fill="#323232" d="M291.49,5.95h13.67c13.92,0,17.11,6.62,17.11,11.75v1.02c0,5.3-2.44,12.49-17.08,12.49h-13.7V5.95z
		 M298.88,25.58h5.96c8.97,0,9.76-4.14,9.76-6.99v-0.2c0-2.85-0.86-6.82-9.76-6.82h-5.96V25.58z"/>
	<path fill="#323232" d="M358.39,5.55c12.48,0,16.04,6.93,16.04,12.46v1.02c0,5.43-3.55,12.6-16.04,12.6h-1.58
		c-12.48,0-16.04-7.16-16.04-12.6v-1.02c0-5.5,3.55-12.46,16.04-12.46H358.39z M366.75,18.28c0-3.12-1.61-6.96-9.15-6.96
		c-7.46,0-9.15,3.84-9.15,6.96v0.48c0,3.05,1.79,7.06,9.15,7.06c7.5,0,9.15-4.01,9.15-7.06V18.28z"/>
	<path fill="#323232" d="M443.22,5.95v5.6h-16.97v4.52h16.47v5.77h-16.47v9.37h-7.35V5.95H443.22z"/>
	<path fill="#323232" d="M492.75,25.61v2.61c0,1.9,0.18,2.41,0.43,2.82v0.17h-7.64c-0.11-0.17-0.25-0.64-0.25-1.77v-2.07
		c0-3.26-1.26-4.75-4.99-4.75h-9.61v8.59h-7.39V5.95h17.97c10.15,0,11.3,4.01,11.3,6.76v0.34c0,3.16-2.3,5.3-5.63,6.01
		C490.57,19.84,492.75,21.91,492.75,25.61z M470.69,16.89h10.3c3.01,0,3.84-1.22,3.84-2.68v-0.07c0-1.46-0.83-2.62-3.84-2.62h-10.3
		V16.89z"/>
	<path fill="#323232" d="M537.27,5.95v5.5h-17.15v4.11h16.61v5.7h-16.61v4.38h17.36v5.57h-24.64V5.95H537.27z"/>
	<path fill="#323232" d="M572.02,31.59c-11.77,0-15.46-6.96-15.46-12.63v-0.92c0-5.37,3.44-12.43,15.61-12.43h1.22
		c11.62,0,15.32,4.79,15.32,8.96v0.07h-7.64c-0.29-0.65-1.33-3.33-8.25-3.33c-6.56,0-8.57,3.5-8.57,6.89v0.44
		c0,3.29,2.22,7.23,8.83,7.23c6.31,0,7.71-3.19,7.82-3.94h-7.25v-4.52h15.39v13.78h-5.88c-0.11-0.92-0.5-2.68-0.9-3.5
		c-0.57,0.71-3.37,3.87-9.65,3.87H572.02z"/>
	<path fill="#323232" d="M630.63,26.53h-14.42l-2.15,4.68h-7.43l11.84-25.26h9.9l12.38,25.26h-7.93L630.63,26.53z M623.31,11.05
		l-4.7,10.29h9.54L623.31,11.05z"/>
	<path fill="#323232" d="M664.42,11.73h-10.33V5.95h28.02v5.77h-10.33v19.49h-7.35V11.73z"/>
	<path fill="#323232" d="M725.82,5.95v5.5h-17.15v4.11h16.61v5.7h-16.61v4.38h17.36v5.57h-24.64V5.95H725.82z"/>
</g>
</svg>
