<?xml version="1.0" encoding="utf-8"?>
<!-- Generator: Adobe Illustrator 24.0.1, SVG Export Plug-In . SVG Version: 6.00 Build 0)  -->
<svg version="1.1" id="Layer_1" xmlns="http://www.w3.org/2000/svg" xmlns:xlink="http://www.w3.org/1999/xlink" x="0px" y="0px"
	 viewBox="0 0 186 36" enable-background="new 0 0 186 36" xml:space="preserve">
<g>
	<path fill="#323232" d="M0.75,6.03h7.39v9.37h14.89V6.03h7.39v25.26h-7.39V21.14H8.14v10.15H0.75V6.03z"/>
	<path fill="#323232" d="M67.79,5.62c12.48,0,16.04,6.93,16.04,12.46v1.02c0,5.43-3.55,12.6-16.04,12.6h-1.58
		c-12.48,0-16.04-7.16-16.04-12.6v-1.02c0-5.5,3.55-12.46,16.04-12.46H67.79z M76.14,18.36c0-3.12-1.61-6.96-9.15-6.96
		c-7.46,0-9.15,3.84-9.15,6.96v0.48c0,3.06,1.79,7.06,9.15,7.06c7.5,0,9.15-4.01,9.15-7.06V18.36z"/>
	<path fill="#323232" d="M103.58,6.03h9.83l8.5,17.11l8.75-17.11h9.22v25.26h-7.21V14.76l-8.11,16.53h-5.78l-8.11-16.53v16.53h-7.1
		V6.03z"/>
	<path fill="#323232" d="M185.26,6.03v5.5h-17.15v4.11h16.61v5.7h-16.61v4.38h17.36v5.57h-24.64V6.03H185.26z"/>
</g>
</svg>
