<?xml version="1.0" encoding="utf-8"?>
<!-- Generator: Adobe Illustrator 24.0.1, SVG Export Plug-In . SVG Version: 6.00 Build 0)  -->
<svg version="1.1" id="Layer_1" xmlns="http://www.w3.org/2000/svg" xmlns:xlink="http://www.w3.org/1999/xlink" x="0px" y="0px"
	 viewBox="0 0 2440 100" enable-background="new 0 0 2440 100" xml:space="preserve">
<g>
	<g>
		<path fill="#FFFFFF" d="M23.65,89.08L0.58,22.06h19.91l14.77,48.2l14.05-48.2h21.62l14.14,48.38l14.68-48.38h18.29L95.81,89.08
			H73.65L59.41,42.14L45.18,89.08H23.65z"/>
		<path fill="#FFFFFF" d="M163.83,22.06h18.56v24.86h37.39V22.06h18.56v67.03h-18.56V62.14h-37.39v26.94h-18.56V22.06z"/>
		<path fill="#FFFFFF" d="M309.32,89.08h-18.56V22.06h18.56V89.08z"/>
		<path fill="#FFFFFF" d="M394.09,90.25c-31.44,0-35.04-14.23-35.04-22.25v-0.99h20.18c0.27,2.97,1.53,9.64,15.77,9.64h0.63
			c13.96,0,15.77-4.14,15.77-8.02c0-4.05-2.61-6.49-13.69-6.94l-8.92-0.27c-21.98-0.72-29.01-9.46-29.01-19.55v-0.81
			c0-10.45,5.59-19.82,33.33-19.82h3.06c29.64,0,33.69,10.81,33.69,19.64v0.99h-19.91c-0.45-2.97-2.07-7.39-15.04-7.39H394
			c-11.89,0-14.68,2.25-14.68,5.95c0,3.42,2.43,5.95,12.97,6.4l9.28,0.36c23.87,0.99,29.64,8.74,29.64,19.64v1.08
			c0,9.82-4.5,22.34-34.5,22.34H394.09z"/>
		<path fill="#FFFFFF" d="M480.94,89.08V22.06h18.56v27.57l31.35-27.57h23.6l-35.31,30.72l36.85,36.31h-24.23L499.5,57.55v31.53
			H480.94z"/>
		<path fill="#FFFFFF" d="M652.92,76.65H616.7l-5.41,12.43h-18.65l29.73-67.03h24.86l31.08,67.03h-19.91L652.92,76.65z
			 M634.54,35.57l-11.8,27.3h23.96L634.54,35.57z"/>
		<path fill="#FFFFFF" d="M754.45,90.25c-31.44,0-35.04-14.23-35.04-22.25v-0.99h20.18c0.27,2.97,1.53,9.64,15.77,9.64h0.63
			c13.96,0,15.77-4.14,15.77-8.02c0-4.05-2.61-6.49-13.69-6.94l-8.92-0.27c-21.98-0.72-29.01-9.46-29.01-19.55v-0.81
			c0-10.45,5.59-19.82,33.33-19.82h3.06c29.64,0,33.69,10.81,33.69,19.64v0.99H770.3c-0.45-2.97-2.07-7.39-15.04-7.39h-0.9
			c-11.89,0-14.68,2.25-14.68,5.95c0,3.42,2.43,5.95,12.97,6.4l9.28,0.36c23.87,0.99,29.64,8.74,29.64,19.64v1.08
			c0,9.82-4.5,22.34-34.5,22.34H754.45z"/>
		<path fill="#FFFFFF" d="M931.2,51.24v14.68h-29.64V51.24H931.2z"/>
		<path fill="#FFFFFF" d="M1079.66,90.07c-30.63,0-38.74-19.64-38.74-33.33v-2.7c0-13.96,8.11-32.97,38.74-32.97h4.14
			c28.11,0,37.48,13.78,37.48,26.49v0.18h-19.1c-0.27-1.89-2.79-11.35-20.45-11.35c-16.4,0-21.53,9.19-21.53,18.2v1.26
			c0,8.29,5.32,18.83,21.62,18.83c17.84,0,20.09-9.64,20.36-11.8h19.1v0.27c0,12.25-9.01,26.94-37.48,26.94H1079.66z"/>
		<path fill="#FFFFFF" d="M1206.69,90.07c-32.88,0-36.67-20.63-36.67-33.96V22.06h18.56v33.6c0,7.66,2.16,18.65,19.19,18.65h0.45
			c17.03,0,19.01-10.99,19.01-18.65v-33.6h18.47v34.05c0,13.42-4.68,33.96-36.4,33.96H1206.69z"/>
		<path fill="#FFFFFF" d="M1371.64,74.22v6.94c0,5.04,0.45,6.4,1.08,7.48v0.45h-19.19c-0.27-0.45-0.63-1.71-0.63-4.68v-5.5
			c0-8.65-3.15-12.61-12.52-12.61h-24.14v22.79h-18.56V22.06h45.13c25.5,0,28.38,10.63,28.38,17.93v0.9
			c0,8.38-5.77,14.05-14.14,15.95C1366.15,58.9,1371.64,64.4,1371.64,74.22z M1316.24,51.06h25.86c7.57,0,9.64-3.24,9.64-7.12v-0.18
			c0-3.87-2.07-6.94-9.64-6.94h-25.86V51.06z"/>
		<path fill="#FFFFFF" d="M1440.47,89.08h-18.56V22.06h18.56V89.08z"/>
		<path fill="#FFFFFF" d="M1534.16,20.97c31.35,0,40.27,18.38,40.27,33.06v2.7c0,14.41-8.92,33.42-40.27,33.42h-3.96
			c-31.35,0-40.27-19.01-40.27-33.42v-2.7c0-14.59,8.92-33.06,40.27-33.06H1534.16z M1555.15,54.76c0-8.29-4.05-18.47-22.97-18.47
			c-18.74,0-22.97,10.18-22.97,18.47v1.26c0,8.11,4.5,18.74,22.97,18.74c18.83,0,22.97-10.63,22.97-18.74V54.76z"/>
		<path fill="#FFFFFF" d="M1656.23,90.25c-31.44,0-35.04-14.23-35.04-22.25v-0.99h20.18c0.27,2.97,1.53,9.64,15.77,9.64h0.63
			c13.96,0,15.77-4.14,15.77-8.02c0-4.05-2.61-6.49-13.69-6.94l-8.92-0.27c-21.98-0.72-29.01-9.46-29.01-19.55v-0.81
			c0-10.45,5.59-19.82,33.33-19.82h3.06c29.64,0,33.69,10.81,33.69,19.64v0.99h-19.91c-0.45-2.97-2.07-7.39-15.04-7.39h-0.9
			c-11.89,0-14.68,2.25-14.68,5.95c0,3.42,2.43,5.95,12.97,6.4l9.28,0.36c23.87,0.99,29.64,8.74,29.64,19.64v1.08
			c0,9.82-4.5,22.34-34.5,22.34H1656.23z"/>
		<path fill="#FFFFFF" d="M1761.63,89.08h-18.56V22.06h18.56V89.08z"/>
		<path fill="#FFFFFF" d="M1835.87,37.37h-25.95V22.06h70.36v15.31h-25.95v51.71h-18.47V37.37z"/>
		<path fill="#FFFFFF" d="M1953.34,64.58l-33.24-42.52h22.97l20.09,26.58l20.09-26.58h20.72l-32.07,42.61v24.41h-18.56V64.58z"/>
		<path fill="#FFFFFF" d="M2109.83,22.06h48.92c19.19,0,23.96,8.38,23.96,15.86v0.99c0,8.47-7.3,12.52-12.34,13.24
			c7.57,1.26,15.68,5.77,15.68,16.58v0.99c0,9.1-5.5,19.37-27.03,19.37h-49.19V22.06z M2128.38,36.02V48h27.66
			c5.68,0,7.3-2.7,7.3-5.86v-0.18c0-3.24-1.8-5.95-7.3-5.95H2128.38z M2128.38,61.15V74.4h29.1c6.49,0,8.38-3.42,8.38-6.76v-0.36
			c0-3.33-1.89-6.13-8.38-6.13H2128.38z"/>
		<path fill="#FFFFFF" d="M2276.13,20.97c31.35,0,40.27,18.38,40.27,33.06v2.7c0,14.41-8.92,33.42-40.27,33.42h-3.96
			c-31.35,0-40.27-19.01-40.27-33.42v-2.7c0-14.59,8.92-33.06,40.27-33.06H2276.13z M2297.12,54.76c0-8.29-4.05-18.47-22.97-18.47
			c-18.74,0-22.97,10.18-22.97,18.47v1.26c0,8.11,4.5,18.74,22.97,18.74c18.83,0,22.97-10.63,22.97-18.74V54.76z"/>
		<path fill="#FFFFFF" d="M2397.48,67.28l-19.46,21.8h-21.8l29.55-34.05l-29.1-32.97h23.51l18.2,20.81l18.11-20.81h21.35
			l-28.2,32.79l29.46,34.23h-22.43L2397.48,67.28z"/>
	</g>
</g>
</svg>
