<?xml version="1.0" encoding="utf-8"?>
<!-- Generator: Adobe Illustrator 24.0.1, SVG Export Plug-In . SVG Version: 6.00 Build 0)  -->
<svg version="1.1" id="Layer_1" xmlns="http://www.w3.org/2000/svg" xmlns:xlink="http://www.w3.org/1999/xlink" x="0px" y="0px"
	 viewBox="22 0 2440 100" enable-background="new 0 0 2500 100" xml:space="preserve">
<g>
	<path fill="#FFFFFF" d="M20.69,24.48h48.92c19.19,0,23.96,8.38,23.96,15.86v0.99c0,8.47-7.3,12.52-12.34,13.24
		c7.57,1.26,15.67,5.77,15.67,16.58v0.99c0,9.1-5.5,19.37-27.03,19.37H20.69V24.48z M39.25,38.44v11.98h27.66
		c5.68,0,7.3-2.7,7.3-5.86v-0.18c0-3.24-1.8-5.95-7.3-5.95H39.25z M39.25,63.58v13.24h29.1c6.49,0,8.38-3.42,8.38-6.76V69.7
		c0-3.33-1.89-6.13-8.38-6.13H39.25z"/>
	<path fill="#FFFFFF" d="M166.72,23.4c31.35,0,40.27,18.38,40.27,33.06v2.7c0,14.41-8.92,33.42-40.27,33.42h-3.96
		c-31.35,0-40.27-19.01-40.27-33.42v-2.7c0-14.59,8.92-33.06,40.27-33.06H166.72z M187.72,57.18c0-8.29-4.05-18.47-22.97-18.47
		c-18.74,0-22.97,10.18-22.97,18.47v1.26c0,8.11,4.5,18.74,22.97,18.74c18.83,0,22.97-10.63,22.97-18.74V57.18z"/>
	<path fill="#FFFFFF" d="M255.73,39.79h-25.95V24.48h70.36v15.31H274.2V91.5h-18.47V39.79z"/>
	<path fill="#FFFFFF" d="M346.72,91.5h-18.56V24.48h18.56V91.5z"/>
	<path fill="#FFFFFF" d="M414.65,92.49c-30.63,0-38.74-19.64-38.74-33.33v-2.7c0-13.96,8.11-32.97,38.74-32.97h4.14
		c28.11,0,37.48,13.78,37.48,26.49v0.18h-19.1c-0.27-1.89-2.79-11.35-20.45-11.35c-16.4,0-21.53,9.19-21.53,18.2v1.26
		c0,8.29,5.32,18.83,21.62,18.83c17.84,0,20.09-9.64,20.36-11.8h19.1v0.27c0,12.25-9.01,26.94-37.48,26.94H414.65z"/>
	<path fill="#FFFFFF" d="M536.36,79.07h-36.22l-5.4,12.43h-18.65l29.73-67.03h24.86l31.08,67.03h-19.91L536.36,79.07z M517.98,37.99
		l-11.8,27.3h23.96L517.98,37.99z M508.88,18.98l8.2-13.33h20l-9.55,13.33H508.88z"/>
	<path fill="#FFFFFF" d="M660.59,76.64v6.94c0,5.04,0.45,6.4,1.08,7.48v0.45h-19.19c-0.27-0.45-0.63-1.71-0.63-4.68v-5.5
		c0-8.65-3.15-12.61-12.52-12.61h-24.14V91.5h-18.56V24.48h45.13c25.5,0,28.38,10.63,28.38,17.93v0.9c0,8.38-5.77,14.05-14.14,15.95
		C655.1,61.32,660.59,66.82,660.59,76.64z M605.19,53.49h25.86c7.57,0,9.64-3.24,9.64-7.12v-0.18c0-3.87-2.07-6.94-9.64-6.94h-25.86
		V53.49z"/>
	<path fill="#FFFFFF" d="M709.15,91.5h-18.56V24.48h18.56V91.5z"/>
	<path fill="#FFFFFF" d="M782.57,23.4c31.35,0,40.27,18.38,40.27,33.06v2.7c0,14.41-8.92,33.42-40.27,33.42h-3.96
		c-31.35,0-40.27-19.01-40.27-33.42v-2.7c0-14.59,8.92-33.06,40.27-33.06H782.57z M803.56,57.18c0-8.29-4.05-18.47-22.97-18.47
		c-18.74,0-22.97,10.18-22.97,18.47v1.26c0,8.11,4.5,18.74,22.97,18.74c18.83,0,22.97-10.63,22.97-18.74V57.18z"/>
	<path fill="#FFFFFF" d="M921.67,53.67v14.68h-29.64V53.67H921.67z"/>
	<path fill="#FFFFFF" d="M1012.39,91.5h-18.56V24.48h18.56V91.5z"/>
	<path fill="#FFFFFF" d="M1062.66,48.08V91.5h-18.11V24.48h19.1l39.19,43.15V24.48h18.02V91.5h-18.2L1062.66,48.08z"/>
	<path fill="#FFFFFF" d="M1174.82,39.79h-25.95V24.48h70.36v15.31h-25.95V91.5h-18.47V39.79z"/>
	<path fill="#FFFFFF" d="M1308.6,24.48v14.59h-43.06v10.9h41.71v15.13h-41.71v11.62h43.6V91.5h-61.89V24.48H1308.6z"/>
	<path fill="#FFFFFF" d="M1357.69,48.08V91.5h-18.11V24.48h19.1l39.19,43.15V24.48h18.02V91.5h-18.2L1357.69,48.08z"/>
	<path fill="#FFFFFF" d="M1480.4,92.67c-31.44,0-35.04-14.23-35.04-22.25v-0.99h20.18c0.27,2.97,1.53,9.64,15.76,9.64h0.63
		c13.96,0,15.77-4.14,15.77-8.02c0-4.05-2.61-6.49-13.69-6.94l-8.92-0.27c-21.98-0.72-29.01-9.46-29.01-19.55v-0.81
		c0-10.45,5.58-19.82,33.33-19.82h3.06c29.64,0,33.69,10.81,33.69,19.64v0.99h-19.91c-0.45-2.97-2.07-7.39-15.04-7.39h-0.9
		c-11.89,0-14.68,2.25-14.68,5.95c0,3.42,2.43,5.95,12.97,6.4l9.28,0.36c23.87,0.99,29.64,8.74,29.64,19.64v1.08
		c0,9.82-4.5,22.34-34.5,22.34H1480.4z"/>
	<path fill="#FFFFFF" d="M1608.32,24.48v14.59h-43.06v10.9h41.71v15.13h-41.71v11.62h43.6V91.5h-61.89V24.48H1608.32z"/>
	<path fill="#FFFFFF" d="M1716.7,92.49c-30.63,0-38.74-19.64-38.74-33.33v-2.7c0-13.96,8.11-32.97,38.74-32.97h4.14
		c28.11,0,37.48,13.78,37.48,26.49v0.18h-19.1c-0.27-1.89-2.79-11.35-20.45-11.35c-16.4,0-21.53,9.19-21.53,18.2v1.26
		c0,8.29,5.32,18.83,21.62,18.83c17.84,0,20.09-9.64,20.36-11.8h19.1v0.27c0,12.25-9.01,26.94-37.48,26.94H1716.7z"/>
	<path fill="#FFFFFF" d="M1838.41,79.07h-36.22l-5.4,12.43h-18.65l29.73-67.03h24.86l31.08,67.03h-19.91L1838.41,79.07z
		 M1820.03,37.99l-11.8,27.3h23.96L1820.03,37.99z"/>
	<path fill="#FFFFFF" d="M1962.64,76.64v6.94c0,5.04,0.45,6.4,1.08,7.48v0.45h-19.19c-0.27-0.45-0.63-1.71-0.63-4.68v-5.5
		c0-8.65-3.15-12.61-12.52-12.61h-24.14V91.5h-18.56V24.48h45.13c25.5,0,28.38,10.63,28.38,17.93v0.9c0,8.38-5.77,14.05-14.14,15.95
		C1957.14,61.32,1962.64,66.82,1962.64,76.64z M1907.23,53.49h25.86c7.57,0,9.64-3.24,9.64-7.12v-0.18c0-3.87-2.07-6.94-9.64-6.94
		h-25.86V53.49z"/>
	<path fill="#FFFFFF" d="M2010.74,48.08V91.5h-18.11V24.48h19.1l39.19,43.15V24.48h18.02V91.5h-18.2L2010.74,48.08z"/>
	<path fill="#FFFFFF" d="M2154.08,79.07h-36.22l-5.4,12.43h-18.65l29.73-67.03h24.86l31.08,67.03h-19.91L2154.08,79.07z
		 M2135.7,37.99l-11.8,27.3h23.96L2135.7,37.99z"/>
	<path fill="#FFFFFF" d="M2222.9,91.5l-31.08-67.03h21.62l21.8,50.81l21.89-50.81h20.18l-30,67.03H2222.9z"/>
	<path fill="#FFFFFF" d="M2350.38,79.07h-36.21l-5.41,12.43h-18.65l29.73-67.03h24.86l31.08,67.03h-19.91L2350.38,79.07z
		 M2332,37.99l-11.8,27.3h23.96L2332,37.99z"/>
	<path fill="#FFFFFF" d="M2419.21,24.48v51.26h40.99V91.5h-59.55V24.48H2419.21z"/>
</g>
</svg>
