<?xml version="1.0" encoding="utf-8"?>
<!-- Generator: Adobe Illustrator 24.0.1, SVG Export Plug-In . SVG Version: 6.00 Build 0)  -->
<svg version="1.1" id="Layer_1" xmlns="http://www.w3.org/2000/svg" xmlns:xlink="http://www.w3.org/1999/xlink" x="0px" y="0px"
	 viewBox="22 0 2440 100" enable-background="new 0 0 2500 100" xml:space="preserve">
<g>
	<g>
		<path fill="#FFFFFF" d="M20.69,24.94h18.56v24.86h37.39V24.94H95.2v67.03H76.64V65.03H39.25v26.94H20.69V24.94z"/>
		<path fill="#FFFFFF" d="M188.08,79.54h-36.21l-5.41,12.43h-18.65l29.73-67.03h24.86l31.08,67.03h-19.91L188.08,79.54z
			 M169.7,38.46l-11.8,27.3h23.96L169.7,38.46z"/>
		<path fill="#FFFFFF" d="M264.65,91.97l-31.08-67.03h21.62l21.8,50.81l21.89-50.81h20.18l-30,67.03H264.65z"/>
		<path fill="#FFFFFF" d="M399.88,79.54h-36.21l-5.41,12.43h-18.65l29.73-67.03h24.86l31.08,67.03h-19.91L399.88,79.54z
			 M381.5,38.46l-11.8,27.3h23.96L381.5,38.46z"/>
		<path fill="#FFFFFF" d="M476.45,91.97h-18.56V24.94h18.56V91.97z"/>
		<path fill="#FFFFFF" d="M569.33,79.54h-36.21l-5.41,12.43h-18.65l29.73-67.03h24.86l31.08,67.03h-19.91L569.33,79.54z
			 M550.95,38.46l-11.8,27.3h23.96L550.95,38.46z"/>
		<path fill="#FFFFFF" d="M645.46,48.55v43.42h-18.11V24.94h19.1l39.19,43.15V24.94h18.02v67.03h-18.2L645.46,48.55z"/>
		<path fill="#FFFFFF" d="M796.54,79.54h-36.21l-5.41,12.43h-18.65L766,24.94h24.86l31.08,67.03h-19.91L796.54,79.54z M778.16,38.46
			l-11.8,27.3h23.96L778.16,38.46z"/>
		<path fill="#FFFFFF" d="M885.54,93.14c-31.44,0-35.04-14.23-35.04-22.25V69.9h20.18c0.27,2.97,1.53,9.64,15.77,9.64h0.63
			c13.96,0,15.77-4.14,15.77-8.02c0-4.05-2.61-6.49-13.69-6.94l-8.92-0.27c-21.98-0.72-29.01-9.46-29.01-19.55v-0.81
			c0-10.45,5.59-19.82,33.33-19.82h3.06c29.64,0,33.69,10.81,33.69,19.64v0.99H901.4c-0.45-2.97-2.07-7.39-15.04-7.39h-0.9
			c-11.89,0-14.68,2.25-14.68,5.95c0,3.42,2.43,5.95,12.97,6.4l9.28,0.36c23.87,0.99,29.64,8.74,29.64,19.64v1.08
			c0,9.82-4.5,22.34-34.5,22.34H885.54z"/>
		<path fill="#FFFFFF" d="M1037.25,54.13v14.68h-29.64V54.13H1037.25z"/>
		<path fill="#FFFFFF" d="M1124.91,24.94h34.32c34.95,0,42.97,17.57,42.97,31.17v2.7c0,14.05-6.13,33.15-42.88,33.15h-34.41V24.94z
			 M1143.46,77.02h14.96c22.52,0,24.5-10.99,24.5-18.56v-0.54c0-7.57-2.16-18.11-24.5-18.11h-14.96V77.02z"/>
		<path fill="#FFFFFF" d="M1257.52,91.97h-18.56V24.94h18.56V91.97z"/>
		<path fill="#FFFFFF" d="M1350.4,79.54h-36.21l-5.41,12.43h-18.65l29.73-67.03h24.86l31.08,67.03h-19.91L1350.4,79.54z
			 M1332.02,38.46l-11.8,27.3h23.96L1332.02,38.46z"/>
		<path fill="#FFFFFF" d="M1457.78,24.94h34.32c34.95,0,42.97,17.57,42.97,31.17v2.7c0,14.05-6.13,33.15-42.88,33.15h-34.41V24.94z
			 M1476.34,77.02h14.96c22.52,0,24.5-10.99,24.5-18.56v-0.54c0-7.57-2.16-18.11-24.5-18.11h-14.96V77.02z"/>
		<path fill="#FFFFFF" d="M1622.55,79.54h-36.22l-5.4,12.43h-18.65l29.73-67.03h24.86l31.08,67.03h-19.91L1622.55,79.54z
			 M1604.18,38.46l-11.8,27.3h23.96L1604.18,38.46z"/>
		<path fill="#FFFFFF" d="M1711.56,93.14c-31.44,0-35.04-14.23-35.04-22.25V69.9h20.18c0.27,2.97,1.53,9.64,15.76,9.64h0.63
			c13.96,0,15.77-4.14,15.77-8.02c0-4.05-2.61-6.49-13.69-6.94l-8.92-0.27c-21.98-0.72-29.01-9.46-29.01-19.55v-0.81
			c0-10.45,5.58-19.82,33.33-19.82h3.06c29.64,0,33.69,10.81,33.69,19.64v0.99h-19.91c-0.45-2.97-2.07-7.39-15.04-7.39h-0.9
			c-11.89,0-14.68,2.25-14.68,5.95c0,3.42,2.43,5.95,12.97,6.4l9.28,0.36c23.87,0.99,29.64,8.74,29.64,19.64v1.08
			c0,9.82-4.5,22.34-34.5,22.34H1711.56z"/>
		<path fill="#FFFFFF" d="M1835.25,24.94h48.92c19.19,0,23.96,8.38,23.96,15.86v0.99c0,8.47-7.3,12.52-12.34,13.24
			c7.57,1.26,15.67,5.77,15.67,16.58v0.99c0,9.1-5.5,19.37-27.03,19.37h-49.19V24.94z M1853.81,38.91v11.98h27.66
			c5.68,0,7.3-2.7,7.3-5.86v-0.18c0-3.24-1.8-5.95-7.3-5.95H1853.81z M1853.81,64.04v13.24h29.1c6.49,0,8.38-3.42,8.38-6.76v-0.36
			c0-3.33-1.89-6.13-8.38-6.13H1853.81z"/>
		<path fill="#FFFFFF" d="M2021.73,77.11v6.94c0,5.04,0.45,6.4,1.08,7.48v0.45h-19.19c-0.27-0.45-0.63-1.71-0.63-4.68v-5.5
			c0-8.65-3.15-12.61-12.52-12.61h-24.14v22.79h-18.56V24.94h45.13c25.5,0,28.38,10.63,28.38,17.93v0.9
			c0,8.38-5.77,14.05-14.14,15.95C2016.24,61.79,2021.73,67.29,2021.73,77.11z M1966.33,53.95h25.86c7.57,0,9.64-3.24,9.64-7.12
			v-0.18c0-3.87-2.07-6.94-9.64-6.94h-25.86V53.95z"/>
		<path fill="#FFFFFF" d="M2095.7,92.96c-32.88,0-36.67-20.63-36.67-33.96V24.94h18.56v33.6c0,7.66,2.16,18.65,19.19,18.65h0.45
			c17.03,0,19.01-10.99,19.01-18.65v-33.6h18.47V59c0,13.42-4.68,33.96-36.4,33.96H2095.7z"/>
		<path fill="#FFFFFF" d="M2207.59,70.17l-19.46,21.8h-21.8l29.55-34.05l-29.1-32.97h23.51l18.2,20.81l18.11-20.81h21.35
			l-28.2,32.79l29.46,34.23h-22.43L2207.59,70.17z"/>
		<path fill="#FFFFFF" d="M2334.7,79.54h-36.22l-5.4,12.43h-18.65l29.73-67.03h24.86l31.08,67.03h-19.91L2334.7,79.54z
			 M2316.32,38.46l-11.8,27.3h23.96L2316.32,38.46z"/>
		<path fill="#FFFFFF" d="M2423.71,93.14c-31.44,0-35.04-14.23-35.04-22.25V69.9h20.18c0.27,2.97,1.53,9.64,15.76,9.64h0.63
			c13.96,0,15.77-4.14,15.77-8.02c0-4.05-2.61-6.49-13.69-6.94l-8.92-0.27c-21.98-0.72-29.01-9.46-29.01-19.55v-0.81
			c0-10.45,5.58-19.82,33.33-19.82h3.06c29.64,0,33.69,10.81,33.69,19.64v0.99h-19.91c-0.45-2.97-2.07-7.39-15.04-7.39h-0.9
			c-11.89,0-14.68,2.25-14.68,5.95c0,3.42,2.43,5.95,12.97,6.4l9.28,0.36c23.87,0.99,29.64,8.74,29.64,19.64v1.08
			c0,9.82-4.5,22.34-34.5,22.34H2423.71z"/>
	</g>
</g>
</svg>
