<?xml version="1.0" encoding="utf-8"?>
<!-- Generator: Adobe Illustrator 24.0.1, SVG Export Plug-In . SVG Version: 6.00 Build 0)  -->
<svg version="1.1" id="Layer_1" xmlns="http://www.w3.org/2000/svg" xmlns:xlink="http://www.w3.org/1999/xlink" x="0px" y="0px"
	 viewBox="0 0 2440 100" enable-background="new 0 0 2440 100" xml:space="preserve">
<g>
	<g>
		<path fill="#FFFFFF" d="M-0.31,23.41h34.32c34.95,0,42.97,17.57,42.97,31.17v2.7c0,14.05-6.13,33.15-42.88,33.15H-0.31V23.41z
			 M18.25,75.48h14.96c22.52,0,24.5-10.99,24.5-18.56v-0.54c0-7.57-2.16-18.11-24.5-18.11H18.25V75.48z"/>
		<path fill="#FFFFFF" d="M165.18,22.33c31.35,0,40.27,18.38,40.27,33.06v2.7c0,14.41-8.92,33.42-40.27,33.42h-3.96
			c-31.35,0-40.27-19.01-40.27-33.42v-2.7c0-14.59,8.92-33.06,40.27-33.06H165.18z M186.17,56.11c0-8.29-4.05-18.47-22.97-18.47
			c-18.74,0-22.97,10.18-22.97,18.47v1.26c0,8.11,4.5,18.74,22.97,18.74c18.83,0,22.97-10.63,22.97-18.74V56.11z"/>
		<path fill="#FFFFFF" d="M326.53,75.57v6.94c0,5.04,0.45,6.4,1.08,7.48v0.45h-19.19c-0.27-0.45-0.63-1.71-0.63-4.68v-5.5
			c0-8.65-3.15-12.61-12.52-12.61h-24.14v22.79h-18.56V23.41h45.13c25.5,0,28.38,10.63,28.38,17.93v0.9
			c0,8.38-5.77,14.05-14.14,15.95C321.04,60.26,326.53,65.75,326.53,75.57z M271.13,52.42h25.86c7.57,0,9.64-3.24,9.64-7.12v-0.18
			c0-3.87-2.07-6.94-9.64-6.94h-25.86V52.42z"/>
		<path fill="#FFFFFF" d="M393.02,90.44h-18.56V23.41h18.56V90.44z"/>
		<path fill="#FFFFFF" d="M464.91,38.73h-25.95V23.41h70.36v15.31h-25.95v51.71h-18.47V38.73z"/>
		<path fill="#FFFFFF" d="M594.28,22.33c31.35,0,40.27,18.38,40.27,33.06v2.7c0,14.41-8.92,33.42-40.27,33.42h-3.96
			c-31.35,0-40.27-19.01-40.27-33.42v-2.7c0-14.59,8.92-33.06,40.27-33.06H594.28z M615.27,56.11c0-8.29-4.05-18.47-22.97-18.47
			c-18.74,0-22.97,10.18-22.97,18.47v1.26c0,8.11,4.5,18.74,22.97,18.74c18.83,0,22.97-10.63,22.97-18.74V56.11z"/>
		<path fill="#FFFFFF" d="M714,91.61c-31.44,0-35.04-14.23-35.04-22.25v-0.99h20.18c0.27,2.97,1.53,9.64,15.76,9.64h0.63
			c13.96,0,15.77-4.14,15.77-8.02c0-4.05-2.61-6.49-13.69-6.94l-8.92-0.27c-21.98-0.72-29.01-9.46-29.01-19.55v-0.81
			c0-10.45,5.58-19.82,33.33-19.82h3.06c29.64,0,33.69,10.81,33.69,19.64v0.99h-19.91c-0.45-2.97-2.07-7.39-15.04-7.39h-0.9
			c-11.89,0-14.68,2.25-14.68,5.95c0,3.42,2.43,5.95,12.97,6.4l9.28,0.36c23.87,0.99,29.64,8.74,29.64,19.64v1.08
			c0,9.82-4.5,22.34-34.5,22.34H714z"/>
		<path fill="#FFFFFF" d="M886.07,52.6v14.68h-29.64V52.6H886.07z"/>
		<path fill="#FFFFFF" d="M1015.89,38.73h-25.95V23.41h70.36v15.31h-25.95v51.71h-18.47V38.73z"/>
		<path fill="#FFFFFF" d="M1180.21,75.57v6.94c0,5.04,0.45,6.4,1.08,7.48v0.45h-19.19c-0.27-0.45-0.63-1.71-0.63-4.68v-5.5
			c0-8.65-3.15-12.61-12.52-12.61h-24.14v22.79h-18.56V23.41h45.13c25.5,0,28.38,10.63,28.38,17.93v0.9
			c0,8.38-5.77,14.05-14.14,15.95C1174.71,60.26,1180.21,65.75,1180.21,75.57z M1124.8,52.42h25.85c7.57,0,9.64-3.24,9.64-7.12
			v-0.18c0-3.87-2.07-6.94-9.64-6.94h-25.85V52.42z"/>
		<path fill="#FFFFFF" d="M1246.69,90.44h-18.56V23.41h18.56V90.44z"/>
		<path fill="#FFFFFF" d="M1332.64,91.43c-29.55,0-38.83-18.47-38.83-33.51v-2.43c0-14.23,8.65-32.97,39.19-32.97h3.06
			c29.19,0,38.47,12.7,38.47,23.78v0.18h-19.19c-0.72-1.71-3.33-8.83-20.72-8.83c-16.49,0-21.53,9.28-21.53,18.29v1.17
			c0,8.74,5.59,19.19,22.16,19.19c15.86,0,19.37-8.47,19.64-10.45h-18.2V53.86h38.65v36.58h-14.77c-0.27-2.43-1.26-7.12-2.25-9.28
			c-1.44,1.89-8.47,10.27-24.23,10.27H1332.64z"/>
		<path fill="#FFFFFF" d="M1465.61,22.33c31.35,0,40.27,18.38,40.27,33.06v2.7c0,14.41-8.92,33.42-40.27,33.42h-3.96
			c-31.35,0-40.27-19.01-40.27-33.42v-2.7c0-14.59,8.92-33.06,40.27-33.06H1465.61z M1486.6,56.11c0-8.29-4.05-18.47-22.97-18.47
			c-18.74,0-22.97,10.18-22.97,18.47v1.26c0,8.11,4.5,18.74,22.97,18.74c18.83,0,22.97-10.63,22.97-18.74V56.11z"/>
		<path fill="#FFFFFF" d="M1571.1,47.01v43.42H1553V23.41h19.1l39.19,43.15V23.41h18.02v67.03h-18.2L1571.1,47.01z"/>
		<path fill="#FFFFFF" d="M1720.65,22.33c31.35,0,40.27,18.38,40.27,33.06v2.7c0,14.41-8.92,33.42-40.27,33.42h-3.96
			c-31.35,0-40.27-19.01-40.27-33.42v-2.7c0-14.59,8.92-33.06,40.27-33.06H1720.65z M1741.64,56.11c0-8.29-4.05-18.47-22.97-18.47
			c-18.74,0-22.97,10.18-22.97,18.47v1.26c0,8.11,4.5,18.74,22.97,18.74c18.83,0,22.97-10.63,22.97-18.74V56.11z"/>
		<path fill="#FFFFFF" d="M1808.04,23.41h24.68l21.35,45.4l21.98-45.4h23.15v67.03h-18.11V46.56l-20.36,43.87h-14.5l-20.36-43.87
			v43.87h-17.84V23.41z"/>
		<path fill="#FFFFFF" d="M2010.65,23.41v14.59h-43.06v10.9h41.71v15.13h-41.71v11.62h43.6v14.77h-61.89V23.41H2010.65z"/>
		<path fill="#FFFFFF" d="M2080.92,38.73h-25.95V23.41h70.36v15.31h-25.95v51.71h-18.47V38.73z"/>
		<path fill="#FFFFFF" d="M2245.24,75.57v6.94c0,5.04,0.45,6.4,1.08,7.48v0.45h-19.19c-0.27-0.45-0.63-1.71-0.63-4.68v-5.5
			c0-8.65-3.15-12.61-12.52-12.61h-24.14v22.79h-18.56V23.41h45.13c25.5,0,28.38,10.63,28.38,17.93v0.9
			c0,8.38-5.77,14.05-14.14,15.95C2239.74,60.26,2245.24,65.75,2245.24,75.57z M2189.83,52.42h25.86c7.57,0,9.64-3.24,9.64-7.12
			v-0.18c0-3.87-2.07-6.94-9.64-6.94h-25.86V52.42z"/>
		<path fill="#FFFFFF" d="M2311.72,90.44h-18.56V23.41h18.56V90.44z"/>
		<path fill="#FFFFFF" d="M2414.78,78h-36.21l-5.41,12.43h-18.65l29.73-67.03h24.86l31.08,67.03h-19.91L2414.78,78z M2396.41,36.92
			l-11.8,27.3h23.96L2396.41,36.92z"/>
	</g>
</g>
</svg>
