<?xml version="1.0" encoding="utf-8"?>
<!-- Generator: Adobe Illustrator 24.0.1, SVG Export Plug-In . SVG Version: 6.00 Build 0)  -->
<svg version="1.1" id="Layer_1" xmlns="http://www.w3.org/2000/svg" xmlns:xlink="http://www.w3.org/1999/xlink" x="0px" y="0px"
	 viewBox="22 0 2440 100" enable-background="new 0 0 2500 100" xml:space="preserve">
<g>
	<g>
		<path fill="#FFFFFF" d="M20.69,25.88h48.92c19.19,0,23.96,8.38,23.96,15.86v0.99c0,8.47-7.3,12.52-12.34,13.24
			c7.57,1.26,15.67,5.77,15.67,16.58v0.99c0,9.1-5.5,19.37-27.03,19.37H20.69V25.88z M39.25,39.84v11.98h27.66
			c5.68,0,7.3-2.7,7.3-5.86v-0.18c0-3.24-1.8-5.95-7.3-5.95H39.25z M39.25,64.98v13.24h29.1c6.49,0,8.38-3.42,8.38-6.76V71.1
			c0-3.33-1.89-6.13-8.38-6.13H39.25z"/>
		<path fill="#FFFFFF" d="M175.91,93.9c-32.88,0-36.67-20.63-36.67-33.96V25.88h18.56v33.6c0,7.66,2.16,18.65,19.19,18.65h0.45
			c17.03,0,19.01-10.99,19.01-18.65v-33.6h18.47v34.05c0,13.42-4.68,33.96-36.4,33.96H175.91z"/>
		<path fill="#FFFFFF" d="M334.83,78.04v6.94c0,5.04,0.45,6.4,1.08,7.48v0.45h-19.19c-0.27-0.45-0.63-1.71-0.63-4.68v-5.5
			c0-8.65-3.15-12.61-12.52-12.61h-24.14V92.9h-18.56V25.88H306c25.5,0,28.38,10.63,28.38,17.93v0.9c0,8.38-5.77,14.05-14.14,15.95
			C329.33,62.72,334.83,68.22,334.83,78.04z M279.43,54.89h25.86c7.57,0,9.64-3.24,9.64-7.12v-0.18c0-3.87-2.07-6.94-9.64-6.94
			h-25.86V54.89z"/>
		<path fill="#FFFFFF" d="M414.92,93.9c-29.55,0-38.83-18.47-38.83-33.51v-2.43c0-14.23,8.65-32.97,39.19-32.97h3.06
			c29.19,0,38.47,12.7,38.47,23.78v0.18h-19.19c-0.72-1.71-3.33-8.83-20.72-8.83c-16.49,0-21.53,9.28-21.53,18.29v1.17
			c0,8.74,5.59,19.19,22.16,19.19c15.86,0,19.37-8.47,19.64-10.45h-18.2V56.33h38.65V92.9h-14.77c-0.27-2.43-1.26-7.12-2.25-9.28
			c-1.44,1.89-8.47,10.27-24.23,10.27H414.92z"/>
		<path fill="#FFFFFF" d="M564.29,25.88v14.59h-43.06v10.9h41.71v15.13h-41.71v11.62h43.6V92.9h-61.89V25.88H564.29z"/>
		<path fill="#FFFFFF" d="M683.47,78.04v6.94c0,5.04,0.45,6.4,1.08,7.48v0.45h-19.19c-0.27-0.45-0.63-1.71-0.63-4.68v-5.5
			c0-8.65-3.15-12.61-12.52-12.61h-24.14V92.9h-18.56V25.88h45.13c25.5,0,28.38,10.63,28.38,17.93v0.9
			c0,8.38-5.77,14.05-14.14,15.95C677.98,62.72,683.47,68.22,683.47,78.04z M628.07,54.89h25.86c7.57,0,9.64-3.24,9.64-7.12v-0.18
			c0-3.87-2.07-6.94-9.64-6.94h-25.86V54.89z"/>
		<path fill="#FFFFFF" d="M783.56,92.9V25.88h18.56v27.57l31.35-27.57h23.6L821.76,56.6L858.6,92.9h-24.23l-32.25-31.53V92.9H783.56
			z"/>
		<path fill="#FFFFFF" d="M915.09,92.9h-18.56V25.88h18.56V92.9z"/>
		<path fill="#FFFFFF" d="M979.59,49.48V92.9h-18.11V25.88h19.1l39.19,43.15V25.88h18.02V92.9h-18.2L979.59,49.48z"/>
		<path fill="#FFFFFF" d="M1120.04,93.9c-29.55,0-38.83-18.47-38.83-33.51v-2.43c0-14.23,8.65-32.97,39.19-32.97h3.06
			c29.19,0,38.47,12.7,38.47,23.78v0.18h-19.19c-0.72-1.71-3.33-8.83-20.72-8.83c-16.49,0-21.53,9.28-21.53,18.29v1.17
			c0,8.74,5.59,19.19,22.16,19.19c15.86,0,19.37-8.47,19.64-10.45h-18.2V56.33h38.65V92.9h-14.77c-0.27-2.43-1.26-7.12-2.25-9.28
			c-1.44,1.89-8.47,10.27-24.23,10.27H1120.04z"/>
		<path fill="#FFFFFF" d="M1291.93,55.07v14.68h-29.64V55.07H1291.93z"/>
		<path fill="#FFFFFF" d="M1453.64,25.88v14.86h-42.61v11.98h41.35v15.31h-41.35V92.9h-18.47V25.88H1453.64z"/>
		<path fill="#FFFFFF" d="M1516.43,25.88v51.26h40.99V92.9h-59.55V25.88H1516.43z"/>
		<path fill="#FFFFFF" d="M1653.36,80.47h-36.21l-5.41,12.43h-18.65l29.73-67.03h24.86l31.08,67.03h-19.91L1653.36,80.47z
			 M1634.98,39.39l-11.8,27.3h23.96L1634.98,39.39z"/>
		<path fill="#FFFFFF" d="M1717.87,25.88h24.68l21.35,45.4l21.98-45.4h23.15V92.9h-18.11V49.03l-20.36,43.87h-14.5l-20.36-43.87
			V92.9h-17.84V25.88z"/>
		<path fill="#FFFFFF" d="M1916.78,25.88v14.59h-43.06v10.9h41.71v15.13h-41.71v11.62h43.6V92.9h-61.89V25.88H1916.78z"/>
		<path fill="#FFFFFF" d="M2017.86,25.88h18.56v24.86h37.39V25.88h18.56V92.9h-18.56V65.97h-37.39V92.9h-18.56V25.88z"/>
		<path fill="#FFFFFF" d="M2180.02,24.8c31.35,0,40.27,18.38,40.27,33.06v2.7c0,14.41-8.92,33.42-40.27,33.42h-3.96
			c-31.35,0-40.27-19.01-40.27-33.42v-2.7c0-14.59,8.92-33.06,40.27-33.06H2180.02z M2201.01,58.58c0-8.29-4.05-18.47-22.97-18.47
			c-18.74,0-22.97,10.18-22.97,18.47v1.26c0,8.11,4.5,18.74,22.97,18.74c18.83,0,22.97-10.63,22.97-18.74V58.58z"/>
		<path fill="#FFFFFF" d="M2299.93,93.9c-32.88,0-36.67-20.63-36.67-33.96V25.88h18.56v33.6c0,7.66,2.16,18.65,19.19,18.65h0.45
			c17.03,0,19.01-10.99,19.01-18.65v-33.6h18.47v34.05c0,13.42-4.68,33.96-36.4,33.96H2299.93z"/>
		<path fill="#FFFFFF" d="M2458.84,78.04v6.94c0,5.04,0.45,6.4,1.08,7.48v0.45h-19.19c-0.27-0.45-0.63-1.71-0.63-4.68v-5.5
			c0-8.65-3.15-12.61-12.52-12.61h-24.14V92.9h-18.56V25.88h45.13c25.5,0,28.38,10.63,28.38,17.93v0.9
			c0,8.38-5.77,14.05-14.14,15.95C2453.35,62.72,2458.84,68.22,2458.84,78.04z M2403.44,54.89h25.85c7.57,0,9.64-3.24,9.64-7.12
			v-0.18c0-3.87-2.07-6.94-9.64-6.94h-25.85V54.89z"/>
	</g>
</g>
</svg>
