<?xml version="1.0" encoding="utf-8"?>
<!-- Generator: Adobe Illustrator 24.0.1, SVG Export Plug-In . SVG Version: 6.00 Build 0)  -->
<svg version="1.1" id="Layer_1" xmlns="http://www.w3.org/2000/svg" xmlns:xlink="http://www.w3.org/1999/xlink" x="0px" y="0px"
	 viewBox="0 0 2440 100" enable-background="new 0 0 2440 100" xml:space="preserve">
<g>
	<g>
		<path fill="#FFFFFF" d="M-0.31,24.88h48.92c19.19,0,23.96,8.38,23.96,15.86v0.99c0,8.47-7.3,12.52-12.34,13.24
			c7.57,1.26,15.67,5.77,15.67,16.58v0.99c0,9.1-5.5,19.37-27.03,19.37H-0.31V24.88z M18.25,38.84v11.98h27.66
			c5.68,0,7.3-2.7,7.3-5.86v-0.18c0-3.24-1.8-5.95-7.3-5.95H18.25z M18.25,63.98v13.24h29.1c6.49,0,8.38-3.42,8.38-6.76V70.1
			c0-3.33-1.89-6.13-8.38-6.13H18.25z"/>
		<path fill="#FFFFFF" d="M154.91,92.9c-32.88,0-36.67-20.63-36.67-33.96V24.88h18.56v33.6c0,7.66,2.16,18.65,19.19,18.65h0.45
			c17.03,0,19.01-10.99,19.01-18.65v-33.6h18.47v34.05c0,13.42-4.68,33.96-36.4,33.96H154.91z"/>
		<path fill="#FFFFFF" d="M313.83,77.04v6.94c0,5.04,0.45,6.4,1.08,7.48v0.45h-19.19c-0.27-0.45-0.63-1.71-0.63-4.68v-5.5
			c0-8.65-3.15-12.61-12.52-12.61h-24.14V91.9h-18.56V24.88H285c25.5,0,28.38,10.63,28.38,17.93v0.9c0,8.38-5.77,14.05-14.14,15.95
			C308.33,61.72,313.83,67.22,313.83,77.04z M258.43,53.89h25.86c7.57,0,9.64-3.24,9.64-7.12v-0.18c0-3.87-2.07-6.94-9.64-6.94
			h-25.86V53.89z"/>
		<path fill="#FFFFFF" d="M393.92,92.9c-29.55,0-38.83-18.47-38.83-33.51v-2.43c0-14.23,8.65-32.97,39.19-32.97h3.06
			c29.19,0,38.47,12.7,38.47,23.78v0.18h-19.19c-0.72-1.71-3.33-8.83-20.72-8.83c-16.49,0-21.53,9.28-21.53,18.29v1.17
			c0,8.74,5.59,19.19,22.16,19.19c15.86,0,19.37-8.47,19.64-10.45h-18.2V55.33h38.65V91.9h-14.77c-0.27-2.43-1.26-7.12-2.25-9.28
			c-1.44,1.89-8.47,10.27-24.23,10.27H393.92z"/>
		<path fill="#FFFFFF" d="M543.29,24.88v14.59h-43.06v10.9h41.71v15.13h-41.71v11.62h43.6V91.9h-61.89V24.88H543.29z"/>
		<path fill="#FFFFFF" d="M662.47,77.04v6.94c0,5.04,0.45,6.4,1.08,7.48v0.45h-19.19c-0.27-0.45-0.63-1.71-0.63-4.68v-5.5
			c0-8.65-3.15-12.61-12.52-12.61h-24.14V91.9h-18.56V24.88h45.13c25.5,0,28.38,10.63,28.38,17.93v0.9
			c0,8.38-5.77,14.05-14.14,15.95C656.98,61.72,662.47,67.22,662.47,77.04z M607.07,53.89h25.85c7.57,0,9.64-3.24,9.64-7.12v-0.18
			c0-3.87-2.07-6.94-9.64-6.94h-25.85V53.89z"/>
		<path fill="#FFFFFF" d="M762.56,91.9V24.88h18.56v27.57l31.35-27.57h23.6L800.76,55.6L837.6,91.9h-24.23l-32.25-31.53V91.9H762.56
			z"/>
		<path fill="#FFFFFF" d="M894.09,91.9h-18.56V24.88h18.56V91.9z"/>
		<path fill="#FFFFFF" d="M958.59,48.48V91.9h-18.11V24.88h19.1l39.19,43.15V24.88h18.02V91.9h-18.2L958.59,48.48z"/>
		<path fill="#FFFFFF" d="M1099.04,92.9c-29.55,0-38.83-18.47-38.83-33.51v-2.43c0-14.23,8.65-32.97,39.19-32.97h3.06
			c29.19,0,38.47,12.7,38.47,23.78v0.18h-19.19c-0.72-1.71-3.33-8.83-20.72-8.83c-16.49,0-21.53,9.28-21.53,18.29v1.17
			c0,8.74,5.59,19.19,22.16,19.19c15.86,0,19.37-8.47,19.64-10.45h-18.2V55.33h38.65V91.9h-14.77c-0.27-2.43-1.26-7.12-2.25-9.28
			c-1.44,1.89-8.47,10.27-24.23,10.27H1099.04z"/>
		<path fill="#FFFFFF" d="M1270.93,54.07v14.68h-29.64V54.07H1270.93z"/>
		<path fill="#FFFFFF" d="M1432.63,24.88v14.86h-42.61v11.98h41.35v15.31h-41.35V91.9h-18.47V24.88H1432.63z"/>
		<path fill="#FFFFFF" d="M1495.43,24.88v51.26h40.99V91.9h-59.55V24.88H1495.43z"/>
		<path fill="#FFFFFF" d="M1632.36,79.47h-36.21l-5.41,12.43h-18.65l29.73-67.03h24.86l31.08,67.03h-19.91L1632.36,79.47z
			 M1613.98,38.39l-11.8,27.3h23.96L1613.98,38.39z"/>
		<path fill="#FFFFFF" d="M1696.86,24.88h24.68l21.35,45.4l21.98-45.4h23.15V91.9h-18.11V48.03l-20.36,43.87h-14.5l-20.36-43.87
			V91.9h-17.84V24.88z"/>
		<path fill="#FFFFFF" d="M1895.78,24.88v14.59h-43.06v10.9h41.71v15.13h-41.71v11.62h43.6V91.9h-61.89V24.88H1895.78z"/>
		<path fill="#FFFFFF" d="M1996.86,24.88h18.56v24.86h37.39V24.88h18.56V91.9h-18.56V64.97h-37.39V91.9h-18.56V24.88z"/>
		<path fill="#FFFFFF" d="M2159.02,23.8c31.35,0,40.27,18.38,40.27,33.06v2.7c0,14.41-8.92,33.42-40.27,33.42h-3.96
			c-31.35,0-40.27-19.01-40.27-33.42v-2.7c0-14.59,8.92-33.06,40.27-33.06H2159.02z M2180.01,57.58c0-8.29-4.05-18.47-22.97-18.47
			c-18.74,0-22.97,10.18-22.97,18.47v1.26c0,8.11,4.5,18.74,22.97,18.74c18.83,0,22.97-10.63,22.97-18.74V57.58z"/>
		<path fill="#FFFFFF" d="M2278.92,92.9c-32.88,0-36.67-20.63-36.67-33.96V24.88h18.56v33.6c0,7.66,2.16,18.65,19.19,18.65h0.45
			c17.03,0,19.01-10.99,19.01-18.65v-33.6h18.47v34.05c0,13.42-4.68,33.96-36.4,33.96H2278.92z"/>
		<path fill="#FFFFFF" d="M2437.84,77.04v6.94c0,5.04,0.45,6.4,1.08,7.48v0.45h-19.19c-0.27-0.45-0.63-1.71-0.63-4.68v-5.5
			c0-8.65-3.15-12.61-12.52-12.61h-24.14V91.9h-18.56V24.88h45.13c25.5,0,28.38,10.63,28.38,17.93v0.9
			c0,8.38-5.77,14.05-14.14,15.95C2432.34,61.72,2437.84,67.22,2437.84,77.04z M2382.44,53.89h25.86c7.57,0,9.64-3.24,9.64-7.12
			v-0.18c0-3.87-2.07-6.94-9.64-6.94h-25.86V53.89z"/>
	</g>
</g>
</svg>
