<?xml version="1.0" encoding="utf-8"?>
<!-- Generator: Adobe Illustrator 24.0.1, SVG Export Plug-In . SVG Version: 6.00 Build 0)  -->
<svg version="1.1" id="Layer_1" xmlns="http://www.w3.org/2000/svg" xmlns:xlink="http://www.w3.org/1999/xlink" x="0px" y="0px"
	 viewBox="22 0 2440 100" enable-background="new 0 0 2500 100" xml:space="preserve">
<g>
	<g>
		<path fill="#FFFFFF" d="M82.04,26.35v14.59H38.98v10.9h41.71v15.13H38.98V78.6h43.6v14.77H20.69V26.35H82.04z"/>
		<path fill="#FFFFFF" d="M157.36,94.54c-31.44,0-35.04-14.23-35.04-22.25V71.3h20.18c0.27,2.97,1.53,9.64,15.76,9.64h0.63
			c13.96,0,15.77-4.14,15.77-8.02c0-4.05-2.61-6.49-13.69-6.94l-8.92-0.27c-21.98-0.72-29.01-9.46-29.01-19.55v-0.81
			c0-10.45,5.58-19.82,33.33-19.82h3.06c29.64,0,33.69,10.81,33.69,19.64v0.99h-19.91c-0.45-2.97-2.07-7.39-15.04-7.39h-0.9
			c-11.89,0-14.68,2.25-14.68,5.95c0,3.42,2.43,5.95,12.97,6.4l9.28,0.36c23.87,0.99,29.64,8.74,29.64,19.64v1.08
			c0,9.82-4.5,22.34-34.5,22.34H157.36z"/>
		<path fill="#FFFFFF" d="M256.36,41.66h-25.95V26.35h70.36v15.31h-25.95v51.71h-18.47V41.66z"/>
		<path fill="#FFFFFF" d="M386.09,80.94h-36.22l-5.4,12.43h-18.65l29.73-67.03h24.86l31.08,67.03h-19.91L386.09,80.94z
			 M367.71,39.86l-11.8,27.3h23.96L367.71,39.86z"/>
		<path fill="#FFFFFF" d="M448.34,26.35h34.32c34.95,0,42.97,17.57,42.97,31.17v2.7c0,14.05-6.12,33.15-42.88,33.15h-34.41V26.35z
			 M466.9,78.42h14.95c22.52,0,24.5-10.99,24.5-18.56v-0.54c0-7.57-2.16-18.11-24.5-18.11H466.9V78.42z"/>
		<path fill="#FFFFFF" d="M617.35,80.94h-36.22l-5.4,12.43h-18.65l29.73-67.03h24.86l31.08,67.03h-19.91L617.35,80.94z M591.49,21.3
			H581.4v-7.03c0-3.78,1.44-8.83,7.84-8.83h0.18c3.33,0,6.58,1.35,11.17,3.24c2.79,1.17,4.14,1.8,5.14,1.8s1.26-0.9,1.26-1.98V4.9
			h10.09v7.03c0,3.78-1.44,8.83-7.84,8.83h-0.18c-3.33,0-6.58-1.35-11.17-3.24c-2.79-1.17-4.14-1.8-5.13-1.8s-1.26,0.9-1.26,1.98
			V21.3z M598.97,39.86l-11.8,27.3h23.96L598.97,39.86z"/>
		<path fill="#FFFFFF" d="M718.16,25.26c31.35,0,40.27,18.38,40.27,33.06v2.7c0,14.41-8.92,33.42-40.27,33.42h-3.96
			c-31.35,0-40.27-19.01-40.27-33.42v-2.7c0-14.59,8.92-33.06,40.27-33.06H718.16z M739.15,59.05c0-8.29-4.05-18.47-22.97-18.47
			c-18.74,0-22.97,10.18-22.97,18.47v1.26c0,8.11,4.5,18.74,22.97,18.74c18.83,0,22.97-10.63,22.97-18.74V59.05z"/>
		<path fill="#FFFFFF" d="M881.22,55.53v14.68h-29.64V55.53H881.22z"/>
		<path fill="#FFFFFF" d="M1013.11,94.36c-30.63,0-38.74-19.64-38.74-33.33v-2.7c0-13.96,8.11-32.97,38.74-32.97h4.14
			c28.11,0,37.48,13.78,37.48,26.49v0.18h-19.1c-0.27-1.89-2.79-11.35-20.45-11.35c-16.4,0-21.53,9.19-21.53,18.2v1.26
			c0,8.29,5.32,18.83,21.62,18.83c17.84,0,20.09-9.64,20.36-11.8h19.1v0.27c0,12.25-9.01,26.94-37.48,26.94H1013.11z"/>
		<path fill="#FFFFFF" d="M1146.8,80.94h-36.22l-5.4,12.43h-18.65l29.73-67.03h24.86l31.08,67.03h-19.91L1146.8,80.94z
			 M1128.42,39.86l-11.8,27.3h23.96L1128.42,39.86z"/>
		<path fill="#FFFFFF" d="M1227.16,49.95v43.42h-18.11V26.35h19.1l39.19,43.15V26.35h18.02v67.03h-18.2L1227.16,49.95z"/>
		<path fill="#FFFFFF" d="M1347.61,49.95v43.42h-18.11V26.35h19.1l39.19,43.15V26.35h18.02v67.03h-18.2L1347.61,49.95z"/>
		<path fill="#FFFFFF" d="M1511.3,26.35v14.59h-43.06v10.9h41.71v15.13h-41.71V78.6h43.6v14.77h-61.89V26.35H1511.3z"/>
		<path fill="#FFFFFF" d="M1586.61,94.54c-31.44,0-35.04-14.23-35.04-22.25V71.3h20.18c0.27,2.97,1.53,9.64,15.76,9.64h0.63
			c13.96,0,15.77-4.14,15.77-8.02c0-4.05-2.61-6.49-13.69-6.94l-8.92-0.27c-21.98-0.72-29.01-9.46-29.01-19.55v-0.81
			c0-10.45,5.58-19.82,33.33-19.82h3.06c29.64,0,33.69,10.81,33.69,19.64v0.99h-19.91c-0.45-2.97-2.07-7.39-15.04-7.39h-0.9
			c-11.89,0-14.68,2.25-14.68,5.95c0,3.42,2.43,5.95,12.97,6.4l9.28,0.36c23.87,0.99,29.64,8.74,29.64,19.64v1.08
			c0,9.82-4.5,22.34-34.5,22.34H1586.61z"/>
		<path fill="#FFFFFF" d="M1735.16,93.37l-23.06-67.03h19.91l14.77,48.2l14.05-48.2h21.62l14.14,48.38l14.68-48.38h18.29
			l-22.25,67.03h-22.16l-14.23-46.94l-14.23,46.94H1735.16z"/>
		<path fill="#FFFFFF" d="M1885.61,93.37h-18.56V26.35h18.56V93.37z"/>
		<path fill="#FFFFFF" d="M1947.86,49.95v43.42h-18.11V26.35h19.1l39.19,43.15V26.35h18.02v67.03h-18.2L1947.86,49.95z"/>
		<path fill="#FFFFFF" d="M2068.31,49.95v43.42h-18.11V26.35h19.1l39.19,43.15V26.35h18.02v67.03h-18.2L2068.31,49.95z"/>
		<path fill="#FFFFFF" d="M2232,26.35v14.59h-43.06v10.9h41.71v15.13h-41.71V78.6h43.6v14.77h-61.89V26.35H2232z"/>
		<path fill="#FFFFFF" d="M2348.94,78.51v6.94c0,5.04,0.45,6.4,1.08,7.48v0.45h-19.19c-0.27-0.45-0.63-1.71-0.63-4.68v-5.5
			c0-8.65-3.15-12.61-12.52-12.61h-24.14v22.79h-18.56V26.35h45.13c25.5,0,28.38,10.63,28.38,17.93v0.9
			c0,8.38-5.77,14.05-14.14,15.95C2343.44,63.19,2348.94,68.69,2348.94,78.51z M2293.53,55.35h25.86c7.57,0,9.64-3.24,9.64-7.12
			v-0.18c0-3.87-2.07-6.94-9.64-6.94h-25.86V55.35z"/>
		<path fill="#FFFFFF" d="M2423.26,94.54c-31.44,0-35.04-14.23-35.04-22.25V71.3h20.18c0.27,2.97,1.53,9.64,15.77,9.64h0.63
			c13.96,0,15.77-4.14,15.77-8.02c0-4.05-2.61-6.49-13.69-6.94l-8.92-0.27c-21.98-0.72-29.01-9.46-29.01-19.55v-0.81
			c0-10.45,5.59-19.82,33.33-19.82h3.06c29.64,0,33.69,10.81,33.69,19.64v0.99h-19.91c-0.45-2.97-2.07-7.39-15.04-7.39h-0.9
			c-11.89,0-14.68,2.25-14.68,5.95c0,3.42,2.43,5.95,12.97,6.4l9.28,0.36c23.87,0.99,29.64,8.74,29.64,19.64v1.08
			c0,9.82-4.5,22.34-34.5,22.34H2423.26z"/>
	</g>
</g>
</svg>
