<?xml version="1.0" encoding="utf-8"?>
<!-- Generator: Adobe Illustrator 24.0.1, SVG Export Plug-In . SVG Version: 6.00 Build 0)  -->
<svg version="1.1" id="Layer_1" xmlns="http://www.w3.org/2000/svg" xmlns:xlink="http://www.w3.org/1999/xlink" x="0px" y="0px"
	 viewBox="0 0 2440 100" style="enable-background:new 0 0 2440 100;" xml:space="preserve">
<style type="text/css">
	.st0{fill:#FFFFFF;}
</style>
<g>
	<g>
		<path class="st0" d="M18.3,70.5V92H-0.2V25h45.4c21.2,0,27.7,9.3,27.7,22.3v1c0,12.7-6.8,22.3-27.7,22.3H18.3z M18.3,55.6h25.5
			c6.8,0,9.8-2.9,9.8-7.7v-0.4c0-4.7-3-7.7-9.8-7.7H18.3V55.6z"/>
		<path class="st0" d="M187.4,25v14.6h-43v10.9h41.7v15.1h-41.7v11.6H188V92h-61.9V25H187.4z"/>
		<path class="st0" d="M317,77.1v6.9c0,5,0.5,6.4,1.1,7.5V92h-19.2c-0.3-0.5-0.6-1.7-0.6-4.7v-5.5c0-8.6-3.2-12.6-12.5-12.6h-24.1
			V92h-18.6V25h45.1c25.5,0,28.4,10.6,28.4,17.9v0.9c0,8.4-5.8,14.1-14.1,15.9C311.6,61.8,317,67.3,317,77.1z M261.7,54h25.8
			c7.6,0,9.6-3.2,9.6-7.1v-0.2c0-3.9-2.1-6.9-9.6-6.9h-25.8V54z"/>
		<path class="st0" d="M404,93.1c-31.4,0-35-14.2-35-22.3v-1h20.2c0.3,3,1.5,9.6,15.8,9.6h0.6c14,0,15.8-4.1,15.8-8
			c0-4.1-2.6-6.5-13.7-6.9l-8.9-0.3c-22-0.7-29-9.5-29-19.5V44c0-10.5,5.6-19.8,33.3-19.8h3.1c29.6,0,33.7,10.8,33.7,19.6v1h-19.9
			c-0.5-3-2.1-7.4-15-7.4H404c-11.9,0-14.7,2.3-14.7,5.9c0,3.4,2.4,5.9,13,6.4l9.3,0.4c23.9,1,29.6,8.7,29.6,19.6v1.1
			c0,9.8-4.5,22.3-34.5,22.3H404z"/>
		<path class="st0" d="M536.5,23.9c31.3,0,40.3,18.4,40.3,33.1v2.7c0,14.4-8.9,33.4-40.3,33.4h-4c-31.3,0-40.3-19-40.3-33.4v-2.7
			c0-14.6,8.9-33.1,40.3-33.1H536.5z M557.5,57.7c0-8.3-4.1-18.5-23-18.5c-18.7,0-23,10.2-23,18.5v1.3c0,8.1,4.5,18.7,23,18.7
			c18.8,0,23-10.6,23-18.7V57.7z"/>
		<path class="st0" d="M648.8,48.6V92h-18.1V25h19.1l39.2,43.2V25h18v67h-18.2L648.8,48.6z"/>
		<path class="st0" d="M816.7,79.5h-36.2L775.1,92h-18.6l29.7-67H811l31.1,67h-19.9L816.7,79.5z M798.3,38.5l-11.8,27.3h24
			L798.3,38.5z"/>
		<path class="st0" d="M910.2,25v51.3h41V92h-59.5V25H910.2z"/>
		<path class="st0" d="M1098.4,54.1v14.7h-29.6V54.1H1098.4z"/>
		<path class="st0" d="M1236.3,92l-23.1-67h19.9l14.8,48.2l14-48.2h21.6l14.1,48.4l14.7-48.4h18.3l-22.2,67h-22.2L1272.1,45
			L1257.9,92H1236.3z"/>
		<path class="st0" d="M1399.4,92h-18.6V25h18.6V92z"/>
		<path class="st0" d="M1474.4,48.6V92h-18.1V25h19.1l39.2,43.2V25h18v67h-18.2L1474.4,48.6z"/>
		<path class="st0" d="M1650.7,25v14.6h-43v10.9h41.7v15.1h-41.7v11.6h43.6V92h-61.9V25H1650.7z"/>
		<path class="st0" d="M1791.2,25v51.3h41V92h-59.5V25H1791.2z"/>
		<path class="st0" d="M1938.6,79.5h-36.2l-5.4,12.4h-18.6l29.7-67h24.9l31.1,67H1944L1938.6,79.5z M1920.2,38.5l-11.8,27.3h24
			L1920.2,38.5z"/>
		<path class="st0" d="M2013.5,25h48.9c19.2,0,24,8.4,24,15.9v1c0,8.5-7.3,12.5-12.3,13.2c7.6,1.3,15.7,5.8,15.7,16.6v1
			c0,9.1-5.5,19.4-27,19.4h-49.2V25z M2032,38.9v12h27.6c5.7,0,7.3-2.7,7.3-5.9v-0.2c0-3.2-1.8-5.9-7.3-5.9H2032z M2032,64.1v13.2
			h29.1c6.5,0,8.4-3.4,8.4-6.8v-0.4c0-3.3-1.9-6.1-8.4-6.1H2032z"/>
		<path class="st0" d="M2204.2,25v14.6h-43v10.9h41.7v15.1h-41.7v11.6h43.6V92h-61.9V25H2204.2z"/>
		<path class="st0" d="M2278.5,25v51.3h41V92h-59.5V25H2278.5z"/>
		<path class="st0" d="M2402.5,93.1c-31.4,0-35-14.2-35-22.3v-1h20.2c0.3,3,1.5,9.6,15.8,9.6h0.6c14,0,15.8-4.1,15.8-8
			c0-4.1-2.6-6.5-13.7-6.9l-8.9-0.3c-22-0.7-29-9.5-29-19.5V44c0-10.5,5.6-19.8,33.3-19.8h3.1c29.6,0,33.7,10.8,33.7,19.6v1h-19.9
			c-0.5-3-2.1-7.4-15-7.4h-0.9c-11.9,0-14.7,2.3-14.7,5.9c0,3.4,2.4,5.9,13,6.4l9.3,0.4c23.9,1,29.6,8.7,29.6,19.6v1.1
			c0,9.8-4.5,22.3-34.5,22.3H2402.5z"/>
	</g>
</g>
</svg>
